<?xml version="1.0" standalone="no"?>
<!DOCTYPE svg PUBLIC "-//W3C//DTD SVG 20010904//EN"
 "http://www.w3.org/TR/2001/REC-SVG-20010904/DTD/svg10.dtd">
<svg version="1.0" xmlns="http://www.w3.org/2000/svg"
 width="1280.000000pt" height="720.000000pt" viewBox="0 0 1280.000000 720.000000"
 preserveAspectRatio="xMidYMid meet">

<g transform="translate(0.000000,720.000000) scale(0.100000,-0.100000)"
fill="#000000" stroke="none">
<path d="M4823 7025 c-118 -24 -216 -53 -348 -104 -119 -46 -143 -63 -150
-108 -3 -21 -15 -60 -25 -88 -11 -27 -19 -59 -18 -70 0 -11 -4 -49 -11 -85
-14 -81 -14 -210 -1 -210 6 0 10 -7 10 -15 0 -14 14 -19 47 -18 14 1 13 -3
-34 -70 -38 -54 -38 -62 10 -141 47 -78 76 -103 130 -111 53 -8 68 -20 36 -28
-12 -3 -18 -10 -14 -16 5 -10 -7 -15 -27 -12 -5 0 -8 -3 -8 -8 0 -5 15 -12 34
-15 34 -6 54 -30 36 -41 -6 -4 -10 -17 -10 -31 0 -18 -5 -24 -23 -24 -28 0
-47 17 -40 36 3 8 0 14 -6 14 -6 0 -11 9 -11 19 0 11 -4 23 -10 26 -15 9 -12
-22 4 -53 29 -56 52 -67 132 -66 l74 1 20 -68 c12 -38 23 -69 25 -69 2 0 25
13 52 30 51 31 146 60 198 60 47 0 131 -26 167 -51 48 -33 119 -96 120 -106 0
-4 14 -25 30 -46 33 -41 120 -197 110 -197 -3 0 -16 10 -29 22 -13 12 -23 17
-22 12 1 -19 212 -174 295 -217 40 -20 134 -34 134 -19 0 6 -17 14 -37 17 -21
4 -45 7 -53 9 -8 1 19 8 60 15 73 13 150 46 188 81 12 12 28 16 52 12 l33 -5
-24 -13 c-22 -12 -22 -13 -4 -14 11 0 34 10 50 21 25 18 26 20 8 16 -17 -4 -7
10 37 53 71 70 85 115 52 160 l-21 28 20 53 c11 30 27 69 36 88 8 18 17 59 20
90 5 48 1 65 -20 106 -27 54 -71 100 -127 133 -46 27 -197 72 -241 72 -35 0
-192 -38 -239 -58 -51 -22 -101 -76 -119 -129 l-17 -52 -27 18 -27 18 25 37
c19 28 27 56 31 110 6 64 1 92 -40 257 -41 165 -46 199 -46 297 0 169 -31 248
-145 365 -43 44 -149 108 -177 106 -7 0 -63 -11 -125 -24z m-389 -360 c3 -8
14 -15 24 -15 14 0 21 -9 26 -31 11 -54 7 -65 -29 -85 -33 -18 -36 -18 -65 -1
-16 10 -35 15 -40 12 -6 -3 -10 -1 -10 4 0 6 6 11 14 11 9 0 12 7 9 20 -3 11
0 20 6 20 7 0 9 9 5 25 -4 15 -2 25 5 25 6 0 11 7 11 15 0 8 9 15 19 15 10 0
21 -7 25 -15z m-118 -167 c4 -7 3 -8 -4 -4 -7 4 -12 2 -12 -3 0 -6 -7 -11 -15
-11 -8 0 -15 5 -15 11 0 5 5 7 10 4 6 -3 10 -1 10 4 0 15 17 14 26 -1z m64
-259 c0 -36 -2 -40 -15 -29 -18 15 -19 42 -3 58 17 17 18 16 18 -29z m280 15
c13 -33 13 -31 -9 -37 -13 -3 -26 4 -39 23 -23 31 -20 40 15 40 16 0 27 -8 33
-26z m-167 -139 c59 -2 62 -4 65 -29 3 -25 1 -26 -38 -23 -22 2 -43 0 -46 -5
-3 -5 -14 -6 -24 -3 -10 3 -21 1 -25 -5 -4 -6 7 -13 25 -17 18 -3 27 -9 20
-13 -19 -12 -62 2 -67 21 -3 10 -11 20 -19 23 -14 5 -20 67 -8 79 4 3 17 -1
30 -10 14 -9 51 -16 87 -18z m115 -26 c-2 -6 -8 -10 -13 -10 -5 0 -11 4 -13
10 -2 6 4 11 13 11 9 0 15 -5 13 -11z m966 -309 c39 -16 46 -23 46 -47 -1 -20
-10 -34 -33 -48 -23 -15 -32 -28 -32 -47 0 -15 -5 -32 -12 -39 -14 -14 -33 17
-36 61 -2 25 -8 32 -42 42 -38 12 -40 15 -37 48 2 19 9 41 15 48 14 17 67 10
131 -18z m-140 -109 c6 -10 -33 -23 -46 -15 -4 3 -8 9 -8 15 0 12 47 12 54 0z
m241 -101 c-3 -5 -10 -10 -16 -10 -5 0 -9 5 -9 10 0 6 7 10 16 10 8 0 12 -4 9
-10z m-315 -91 c-9 -16 -14 -18 -26 -9 -17 15 -9 30 17 30 17 0 18 -3 9 -21z
m159 9 c0 -7 -4 -21 -8 -31 -6 -17 -8 -17 -29 1 -27 23 -27 29 -4 35 32 8 42
7 41 -5z m177 -63 c3 -14 3 -32 0 -41 -10 -27 -31 -9 -34 29 -2 28 1 37 12 37
9 0 18 -11 22 -25z m-171 -60 l30 -13 -26 -1 c-15 -1 -40 6 -55 14 -29 15 -29
15 -4 14 14 0 39 -6 55 -14z m152 -57 c-3 -8 -6 -5 -6 6 -1 11 2 17 5 13 3 -3
4 -12 1 -19z"/>
<path d="M8297 6868 c-7 -20 20 -33 39 -17 10 8 15 5 20 -18 4 -15 12 -31 18
-35 6 -4 12 -12 12 -18 3 -23 5 -24 14 -10 8 13 10 13 10 -2 0 -9 -8 -18 -17
-21 -17 -4 -16 -5 1 -12 13 -6 23 -3 31 8 7 9 15 14 18 10 4 -3 7 -1 7 6 0 7
5 9 10 6 6 -3 10 -1 10 5 0 7 -7 10 -15 6 -11 -4 -15 1 -15 17 0 18 2 19 10 7
5 -8 10 -10 10 -5 0 6 -5 17 -10 25 -8 12 -11 11 -16 -8 -6 -22 -37 -28 -34
-7 1 5 -7 12 -17 16 -16 7 -15 8 4 8 12 1 23 -6 26 -16 3 -13 5 -12 6 5 1 16
9 26 23 30 21 5 21 6 2 12 -10 4 -31 4 -46 -1 -17 -4 -30 -3 -34 3 -3 5 -17 7
-29 4 -14 -4 -25 -1 -27 6 -3 8 -7 6 -11 -4z"/>
<path d="M8660 6867 c0 -9 -9 -13 -25 -12 -30 4 -33 -15 -6 -39 12 -11 21 -14
26 -7 14 24 32 11 27 -20 -3 -17 -8 -26 -11 -20 -8 12 -51 11 -51 -2 0 -5 9
-5 20 -2 11 3 20 2 20 -3 0 -5 12 -12 26 -15 18 -3 24 -1 20 9 -7 18 2 18 19
0 8 -7 11 -17 7 -21 -4 -5 1 -5 11 -2 21 8 23 -11 2 -19 -8 -4 -15 -14 -15
-24 0 -10 -5 -20 -12 -22 -6 -2 -8 -10 -4 -17 6 -9 11 -9 21 -1 9 8 14 7 18
-4 4 -9 2 -18 -3 -21 -7 -4 -6 -13 0 -25 5 -10 9 -42 9 -72 0 -29 1 -80 2
-113 3 -64 -4 -156 -13 -171 -3 -5 -4 -19 -3 -32 1 -20 -2 -23 -23 -17 -23 6
-24 4 -12 -10 7 -9 9 -15 4 -14 -19 3 -34 -1 -34 -12 0 -5 4 -8 9 -5 5 3 11
-4 14 -15 4 -14 10 -18 18 -13 9 5 10 2 6 -9 -3 -9 -1 -18 6 -20 7 -2 9 -8 5
-12 -4 -4 -15 1 -25 13 -10 11 -29 23 -43 26 l-25 5 25 -11 c32 -13 56 -58 37
-70 -9 -6 -9 -8 2 -8 11 0 9 -4 -5 -16 -19 -15 -18 -15 3 -9 20 6 21 4 11 -29
-6 -19 -15 -33 -20 -30 -10 6 -11 -10 -1 -20 13 -13 11 -35 -3 -29 -8 3 -14
-1 -14 -11 0 -9 5 -16 11 -16 7 0 9 -9 6 -21 -3 -12 0 -22 8 -25 7 -3 11 -14
8 -25 -3 -10 -10 -16 -17 -12 -6 3 -4 -2 5 -13 16 -20 15 -59 -2 -49 -5 4 -9
-1 -9 -10 0 -12 -7 -15 -28 -12 -26 4 -27 3 -24 -35 5 -43 -19 -81 -44 -71
-13 5 -12 9 3 25 20 23 25 46 13 67 -8 13 -9 12 -10 -5 0 -27 -35 -58 -55 -50
-9 3 -13 2 -10 -4 4 -6 -8 -24 -24 -41 -34 -33 -33 -49 3 -49 12 0 30 -6 40
-13 15 -11 16 -17 5 -40 -7 -15 -16 -27 -21 -27 -5 0 -7 -9 -3 -19 9 -30 -35
-66 -50 -41 -3 6 -11 10 -16 10 -6 0 -7 -4 -4 -10 3 -5 0 -8 -7 -5 -11 5 -14
25 -9 80 0 8 6 15 12 15 6 0 9 -9 6 -19 -5 -22 20 -38 36 -22 7 7 0 20 -21 39
-46 43 -62 25 -62 -70 0 -20 -6 -43 -13 -50 -16 -17 -15 -36 4 -74 l16 -31
-28 14 c-15 8 -31 22 -34 33 -3 10 -13 24 -22 32 -14 11 -15 10 -9 -10 4 -12
4 -22 -1 -22 -18 0 -8 -44 14 -66 24 -24 31 -54 13 -54 -21 0 -70 30 -80 49
-14 27 -13 29 13 34 l22 4 -22 2 c-13 0 -23 8 -23 16 0 8 -4 15 -10 15 -5 0
-10 5 -10 11 0 5 5 7 11 4 6 -4 5 2 -2 13 -10 15 -17 18 -25 11 -10 -8 -12 -3
-12 21 1 18 -9 44 -21 61 -17 23 -20 34 -12 42 18 18 13 54 -9 60 -14 3 -20
14 -20 32 0 17 -4 25 -12 22 -7 -2 -12 -9 -11 -15 1 -5 -7 -18 -18 -28 -19
-17 -20 -17 -40 4 -11 13 -32 22 -48 22 -22 0 -30 6 -35 24 -3 14 -3 33 1 43
4 11 -7 6 -30 -16 -21 -19 -37 -40 -37 -47 0 -6 -13 -26 -29 -43 -17 -18 -30
-34 -30 -37 2 -32 -16 -62 -44 -73 -18 -8 -36 -13 -42 -11 -5 1 -39 4 -75 6
-50 3 -77 0 -118 -17 -50 -21 -53 -21 -66 -4 -12 17 -13 17 -19 -5 -5 -21 -10
-22 -53 -16 -35 4 -54 14 -74 36 -15 17 -33 30 -41 30 -8 0 -4 -8 11 -20 18
-14 21 -20 9 -20 -21 0 -120 34 -147 51 -12 7 -24 10 -28 6 -10 -10 33 -179
48 -189 7 -4 35 -8 63 -8 38 0 46 -3 37 -12 -19 -19 -14 -46 9 -53 16 -5 18
-10 8 -21 -9 -10 -16 -11 -33 -2 -21 11 -21 11 -2 -11 19 -21 19 -21 -8 -21
l-28 0 36 -66 c43 -77 100 -156 174 -239 61 -69 66 -64 -73 -85 -115 -17 -125
-20 -125 -40 0 -12 -12 -22 -35 -30 -19 -6 -33 -15 -30 -19 6 -10 -17 -71 -27
-71 -4 0 -8 -7 -8 -15 0 -25 -46 -29 -77 -7 -34 24 -103 40 -103 23 0 -6 -5
-11 -11 -11 -7 0 -9 12 -4 36 6 35 6 36 -20 30 -14 -4 -55 -20 -91 -36 -35
-17 -69 -30 -74 -30 -15 0 -12 -14 8 -49 9 -17 23 -31 30 -31 6 0 12 -4 12
-10 0 -18 -53 -23 -110 -12 -84 18 -107 15 -165 -18 -72 -41 -83 -55 -61 -79
10 -11 16 -25 15 -33 -3 -17 11 -51 25 -60 7 -6 6 -11 -4 -18 -11 -7 -19 -5
-31 9 -9 11 -31 21 -50 23 -22 2 -37 10 -44 25 -11 22 -12 21 -55 -16 l-44
-37 24 -17 c29 -20 22 -30 -14 -21 -16 4 -23 11 -19 17 12 20 -42 -26 -74 -63
-36 -41 -49 -35 117 -47 97 -7 297 -9 345 -5 11 1 49 -1 85 -4 55 -5 69 -3 89
13 l23 19 -31 34 c-17 19 -31 40 -31 47 0 16 28 43 45 43 22 0 25 40 4 53 -26
16 -24 43 6 63 24 16 26 16 49 -9 12 -13 37 -28 54 -32 49 -10 59 -30 37 -71
-21 -39 -15 -54 12 -27 12 12 17 29 15 56 -2 20 -7 37 -12 37 -5 0 -10 10 -12
22 -2 14 -11 24 -23 26 -54 8 -65 13 -65 32 0 23 36 50 67 50 13 0 23 4 23 9
0 8 38 23 65 26 6 1 21 5 35 10 31 11 90 7 106 -6 9 -7 27 -4 61 11 44 18 120
22 216 11 4 -1 15 -17 23 -36 8 -19 19 -35 24 -35 6 0 10 -6 10 -12 0 -7 16
-25 35 -41 l34 -27 53 21 c40 16 79 22 156 24 111 3 125 -5 76 -44 -14 -11
-24 -23 -24 -27 3 -19 -70 -35 -155 -34 -49 1 -101 1 -115 2 -14 0 -54 -2 -90
-4 -54 -4 -69 -1 -87 15 -12 11 -29 17 -37 14 -23 -9 -20 -50 4 -65 25 -15 26
-51 3 -58 -10 -3 -26 -10 -35 -15 -10 -5 -31 -9 -47 -9 -24 0 -31 6 -40 32
l-11 32 -22 -21 c-17 -17 -24 -19 -39 -10 -23 14 -38 1 -17 -16 15 -11 15 -18
1 -67 -8 -30 -12 -65 -10 -77 3 -16 -2 -22 -20 -26 -19 -4 -26 2 -37 27 l-13
31 -16 -32 c-9 -17 -27 -35 -39 -39 -13 -4 -36 -17 -51 -30 -44 -37 -100 -50
-153 -36 -67 18 -108 15 -160 -13 -58 -31 -117 -33 -141 -5 -21 24 -45 25 -79
4 -21 -15 -31 -15 -66 -5 -29 9 -68 11 -132 5 -50 -4 -124 -8 -164 -8 l-73 -1
-45 -89 c-24 -48 -44 -94 -44 -102 0 -28 -19 -13 -31 24 -13 41 -58 133 -96
199 l-25 43 -40 -21 c-22 -11 -46 -18 -54 -15 -8 3 -13 2 -10 -3 3 -5 -1 -12
-10 -15 -31 -12 -36 -6 -30 32 15 91 18 152 7 152 -6 0 -11 -7 -11 -16 0 -8
-5 -12 -10 -9 -6 3 -15 -6 -20 -20 -8 -22 -15 -26 -33 -21 -21 5 -23 3 -19
-30 l4 -35 -41 17 c-38 15 -44 15 -76 0 -19 -9 -35 -23 -35 -30 0 -12 -20 -26
-36 -26 -2 0 -13 23 -26 52 l-22 52 -8 -30 c-4 -16 -18 -41 -30 -56 -20 -24
-31 -28 -97 -31 l-74 -5 -44 41 c-42 39 -43 41 -23 49 12 4 26 6 31 3 5 -3 28
5 51 18 67 37 169 67 190 56 13 -7 22 -5 35 8 37 37 165 59 247 44 l49 -9 -41
41 -41 40 -93 -23 c-51 -12 -135 -36 -187 -51 -51 -16 -104 -29 -117 -29 -14
0 -41 15 -60 33 -47 43 -52 45 -112 53 -51 6 -52 6 -52 -19 0 -30 -10 -35 -75
-33 -47 1 -50 2 -60 36 -10 35 -10 35 -45 24 -19 -6 -35 -16 -35 -20 1 -27 19
-81 31 -95 12 -14 10 -21 -21 -60 -19 -24 -35 -49 -35 -56 0 -6 16 -17 36 -23
20 -7 45 -21 56 -32 20 -20 20 -20 -2 -92 -12 -39 -28 -84 -35 -101 -8 -16
-11 -33 -7 -37 5 -5 43 -11 87 -15 66 -5 77 -4 69 8 -5 8 -7 22 -6 32 2 10 -3
17 -12 17 -18 0 -21 17 -7 39 7 10 21 12 55 7 25 -4 46 -4 46 1 0 4 11 9 25 9
14 1 25 -3 25 -10 0 -6 4 -5 9 3 13 20 108 21 121 1 19 -29 31 -93 24 -119
l-8 -26 -4 25 c-7 42 -22 47 -22 7 0 -43 -13 -47 -47 -15 -14 13 -23 16 -23 9
0 -23 -32 -81 -44 -81 -25 0 -79 80 -70 104 3 8 1 17 -5 21 -23 14 -10 -44 27
-116 54 -107 69 -114 252 -114 l145 0 11 -35 c10 -29 9 -36 -2 -38 -12 -3 -12
-6 1 -18 8 -8 19 -32 24 -52 14 -59 43 -214 47 -250 2 -18 6 -36 8 -41 3 -5
-22 -34 -55 -66 -61 -58 -65 -68 -28 -70 13 -1 18 3 15 12 -4 9 5 13 30 13 37
0 64 -18 64 -43 0 -9 10 -13 30 -12 30 2 55 15 29 15 -23 0 12 20 37 20 11 0
30 11 42 25 13 14 28 23 34 19 6 -4 9 -1 6 7 -3 8 -15 13 -27 12 -11 -2 -21 2
-21 7 0 16 33 11 57 -8 l22 -17 -33 -44 c-18 -24 -35 -42 -38 -40 -4 2 -16 -8
-27 -23 -13 -16 -28 -25 -36 -21 -12 4 -14 -2 -9 -28 9 -47 12 -47 28 -7 9 21
43 57 87 93 63 50 75 56 92 46 11 -8 16 -8 12 -2 -8 14 1 14 25 -1 17 -11 22
-10 30 2 7 11 5 17 -8 22 -9 3 -46 18 -82 33 -49 21 -87 29 -155 33 -49 2 -93
7 -97 11 -11 10 -23 99 -32 238 -1 18 -5 35 -9 39 -4 4 -7 14 -7 23 0 11 29
25 103 48 161 50 195 51 151 2 -9 -10 -14 -25 -10 -34 12 -33 101 -46 101 -15
0 8 -4 15 -10 15 -5 1 -22 4 -36 8 -22 5 -25 11 -21 36 5 39 30 61 43 40 7
-11 9 -11 9 4 0 10 5 15 10 12 6 -4 7 -23 3 -48 -6 -38 -5 -41 10 -28 10 7 20
31 23 52 7 39 18 50 27 27 3 -7 6 -4 6 7 2 50 -46 84 -162 116 l-72 19 67 -5
c37 -2 93 -14 124 -27 l56 -23 1 -145 2 -145 38 -3 c45 -4 47 -15 7 -35 -21
-11 -31 -12 -34 -3 -4 6 -3 -11 0 -39 15 -130 101 -320 207 -458 l62 -82 3 43
c2 23 7 42 12 42 20 0 15 39 -13 90 -17 30 -35 58 -41 62 -15 10 41 58 68 58
29 0 95 -26 118 -47 17 -15 16 -18 -11 -52 -45 -58 -45 -60 -15 -88 l28 -26
-29 -23 c-16 -12 -29 -32 -30 -43 -1 -12 -12 -32 -24 -45 -19 -20 -20 -24 -6
-36 9 -7 27 -10 44 -7 35 7 45 -1 26 -20 -8 -8 -15 -18 -15 -21 0 -12 148
-132 176 -142 17 -7 32 -6 47 1 18 9 20 9 10 -2 -7 -7 -13 -19 -13 -25 0 -16
40 -22 62 -10 12 7 25 6 43 -4 24 -13 25 -15 8 -21 -10 -4 -206 -8 -436 -8
l-419 -1 -34 -34 -34 -34 -2 -108 c-3 -122 2 -377 8 -383 2 -2 25 15 52 38
l50 41 607 0 c544 0 610 2 635 16 47 28 60 63 60 157 l0 85 53 -14 c201 -52
563 -78 761 -55 193 23 301 41 386 63 l85 23 3 48 c3 41 5 47 18 37 8 -7 14
-25 14 -41 0 -32 6 -34 44 -19 16 6 26 17 26 29 0 27 -21 72 -31 66 -13 -9
-22 16 -9 28 9 9 14 8 24 -5 7 -10 24 -18 37 -18 38 0 55 -15 40 -34 -28 -34
-2 -33 79 2 111 48 112 49 100 72 -5 10 -9 41 -9 69 2 48 10 63 24 41 12 -19
26 0 15 20 -12 23 -8 26 50 35 66 11 263 143 258 174 -2 13 5 16 36 14 22 -2
51 -10 65 -19 25 -17 25 -17 69 32 141 156 246 378 273 580 19 144 -2 434 -31
434 -5 0 -15 -6 -22 -14 -11 -12 -17 -12 -40 0 -16 8 -39 12 -53 8 -17 -4 -41
3 -81 26 -52 29 -57 30 -74 15 -13 -12 -20 -13 -25 -5 -4 7 8 27 28 48 56 60
104 128 122 176 l18 46 -27 35 c-15 19 -34 35 -42 35 -8 0 -14 10 -14 24 0 16
-25 49 -77 103 -74 76 -80 80 -114 76 -50 -7 -77 10 -81 49 -2 27 -8 33 -37
40 -26 7 -32 13 -28 29 6 23 -35 57 -141 116 -35 20 -66 42 -69 50 -9 24 14
63 38 63 18 0 19 3 9 14 -6 8 -11 23 -10 33 5 47 1 55 -26 50 -24 -4 -25 -3
-19 29 3 21 2 34 -5 34 -5 0 -11 8 -12 18 -1 9 -4 -36 -7 -100 -3 -64 -9 -119
-13 -123 -3 -3 -24 3 -47 15 -32 16 -41 26 -42 48 l0 27 -11 -23 c-12 -24 -24
-24 -83 -2 -27 10 -33 38 -13 58 6 6 9 14 6 17 -3 4 -16 -9 -29 -27 -13 -18
-29 -36 -36 -41 -17 -11 -5 -37 23 -48 27 -10 33 -49 10 -68 -7 -6 -16 -30
-19 -53 -5 -39 -22 -62 -39 -52 -4 3 -2 16 4 30 10 21 9 27 -10 40 -20 14 -21
21 -17 90 4 65 3 76 -15 91 -30 26 -24 33 24 29 42 -4 46 -3 70 34 29 44 92
110 106 110 5 0 10 -7 12 -16 3 -14 6 -13 22 5 17 19 18 21 2 21 -9 0 -14 4
-11 10 3 6 22 -1 44 -16 21 -14 51 -26 67 -27 24 -2 34 -11 54 -53 14 -27 35
-66 47 -84 11 -19 24 -61 28 -92 3 -32 10 -58 13 -58 4 0 17 7 30 15 l22 16
-25 37 c-39 56 -67 121 -59 134 4 6 3 8 -4 4 -13 -8 -58 63 -53 84 1 8 9 18
16 23 7 4 16 21 20 37 6 29 9 30 59 30 32 0 67 -8 91 -20 22 -11 47 -20 57
-20 17 0 87 -108 103 -158 l7 -24 23 22 c12 12 22 29 21 38 -1 11 5 16 17 14
18 -3 47 19 47 36 0 6 -14 13 -30 17 -17 4 -28 11 -24 16 3 5 0 9 -5 9 -6 0
-11 7 -11 15 0 8 -4 15 -9 15 -5 0 -13 9 -16 21 -5 16 -12 19 -31 15 -48 -13
-85 62 -48 98 8 9 11 16 5 16 -5 0 -13 9 -16 20 -6 19 -8 19 -35 -10 -28 -30
-72 -40 -85 -19 -5 7 -14 4 -26 -7 -10 -9 -19 -13 -19 -8 0 5 10 18 23 29 l22
20 -38 3 c-29 3 -41 9 -49 28 -6 13 -14 24 -18 24 -13 0 -18 -38 -7 -49 8 -8
8 -11 -1 -11 -19 0 -14 -20 6 -21 9 0 12 -3 5 -5 -18 -8 -51 13 -58 37 -7 22
-4 36 38 174 26 86 32 93 57 77 11 -7 31 -10 46 -6 16 4 31 1 43 -10 17 -16
19 -15 24 6 8 28 7 28 -37 31 -38 2 -51 21 -15 23 36 2 41 17 25 79 -8 31 -18
60 -22 63 -3 4 -3 -4 1 -18 3 -14 9 -33 11 -42 5 -18 -21 -27 -28 -9 -1 5 -19
18 -38 29 -23 12 -34 25 -32 37 2 11 -1 14 -8 10 -18 -11 -67 43 -75 82 -6 32
-7 34 -20 17 -11 -16 -9 -23 16 -55 44 -56 38 -91 -18 -102 -34 -7 -83 22 -83
49 0 18 14 18 30 -1 14 -17 30 -20 30 -6 0 5 -9 11 -20 14 -24 6 -26 34 -5 57
11 12 12 24 5 49 -8 29 -6 33 16 43 13 6 24 15 24 20 0 4 4 8 9 8 4 0 6 -11 3
-25 -4 -21 -1 -25 19 -25 16 0 20 3 12 8 -7 4 -12 24 -11 43 1 20 -2 42 -7 48
-4 7 -9 43 -11 80 -2 36 -1 60 2 54 3 -7 12 -13 19 -13 11 0 25 -20 25 -36 0
-2 -10 -4 -22 -5 -15 0 -18 -2 -8 -6 43 -16 69 -65 30 -58 -11 2 -18 0 -15 -6
10 -16 44 -10 55 10 14 27 13 31 -7 24 -11 -4 -14 -3 -9 6 4 6 2 18 -4 26 -10
12 -9 16 4 21 13 5 9 10 -16 24 -18 9 -33 24 -33 31 0 8 -6 14 -14 14 -17 0
-31 43 -22 69 6 16 8 16 20 2 7 -8 10 -19 7 -24 -3 -5 1 -18 9 -28 12 -17 13
-15 5 18 -4 21 -5 36 -1 34 4 -3 13 -1 21 5 13 7 13 9 0 9 -12 0 -13 2 -1 9
11 7 9 13 -9 31 -12 12 -18 25 -14 28 3 4 9 2 11 -5 2 -7 11 -9 19 -6 10 3 12
0 9 -10 -8 -18 20 -30 32 -14 5 7 10 23 11 37 1 14 -2 20 -6 13 -4 -7 -13 -9
-20 -4 -14 9 -22 100 -9 108 5 3 4 9 -3 13 -9 6 -9 12 0 30 7 12 10 35 7 50
-3 15 -1 32 6 39 8 8 8 11 -1 11 -6 0 0 11 14 25 24 24 25 53 2 39 -8 -5 -9
-1 -5 10 4 10 3 15 -3 11 -6 -3 -10 -12 -10 -19 0 -8 -7 -19 -15 -26 -12 -10
-15 -9 -15 4 0 10 4 14 10 11 5 -3 7 0 4 9 -3 9 3 19 17 27 18 9 24 9 27 -1 3
-7 13 6 24 29 10 23 23 39 28 36 5 -3 12 0 16 6 4 8 3 9 -4 5 -8 -4 -12 0 -12
11 0 16 1 16 17 1 12 -13 14 -20 5 -31 -6 -7 -9 -23 -5 -35 3 -13 1 -22 -6
-22 -6 0 -11 -4 -11 -10 0 -5 7 -7 15 -4 13 6 17 -1 14 -23 -1 -5 -5 -7 -10
-5 -5 1 -9 -2 -9 -7 0 -5 11 -8 24 -8 20 0 23 4 22 31 0 17 -5 34 -10 37 -5 4
-5 12 -1 19 6 9 9 9 16 -1 6 -10 9 -3 10 21 l1 35 8 -30 c4 -16 8 -24 9 -17 2
18 21 15 21 -5 0 -12 7 -8 25 13 14 16 25 24 25 17 0 -6 -5 -15 -11 -19 -8 -5
-6 -12 7 -23 11 -9 17 -15 15 -14 -2 1 -10 -5 -19 -14 -15 -14 -14 -17 4 -32
12 -9 23 -23 27 -31 4 -10 6 -11 6 -2 1 9 9 8 29 -5 19 -13 24 -14 15 -3 -12
16 -6 70 7 70 4 0 8 -12 9 -27 1 -69 0 -67 21 -48 19 17 19 17 7 -8 -7 -15
-17 -23 -26 -19 -9 3 -12 1 -7 -6 4 -7 2 -12 -6 -12 -8 0 -9 -3 -3 -8 6 -4 15
-18 21 -31 9 -21 11 -22 17 -7 4 10 3 15 -3 11 -14 -9 -12 6 5 35 l14 25 1
-32 c0 -26 3 -31 18 -27 13 5 14 4 3 -4 -8 -6 -19 -25 -25 -44 -7 -20 -18 -34
-31 -36 -18 -2 -18 -2 -3 8 10 6 15 17 11 26 -4 12 -9 10 -23 -10 -9 -15 -20
-23 -25 -19 -4 5 -5 2 -1 -4 4 -7 16 -13 27 -13 11 0 19 -7 19 -17 0 -11 -3
-14 -8 -7 -11 16 -37 23 -53 13 -10 -6 -10 -9 -1 -9 6 0 12 -5 12 -11 0 -5 -4
-8 -8 -5 -5 3 -9 -1 -9 -9 0 -11 4 -12 14 -4 16 14 47 -7 36 -24 -10 -17 -13
-58 -3 -52 12 7 0 -36 -18 -62 -15 -25 -5 -31 17 -10 11 10 12 8 4 -8 -6 -11
-13 -36 -17 -56 -5 -31 -9 -35 -34 -33 -18 1 -29 -3 -29 -11 0 -7 6 -11 14 -8
7 3 20 0 27 -6 11 -9 15 -9 20 1 3 7 4 3 2 -9 -2 -13 0 -23 5 -23 15 0 10 -17
-7 -24 -8 -3 -12 -2 -9 4 3 6 -1 13 -9 16 -9 3 -13 10 -10 15 3 5 1 9 -5 9 -5
0 -11 -6 -14 -12 -3 -9 -8 -10 -18 -3 -8 6 -21 10 -29 9 -8 -1 -20 -2 -26 -3
-7 0 -15 -8 -18 -17 -4 -11 -2 -15 8 -11 11 4 13 1 9 -10 -4 -11 -2 -14 5 -9
8 4 10 -3 7 -24 -3 -28 -1 -30 27 -30 30 0 30 -1 15 -18 -19 -21 -11 -38 10
-21 9 9 13 8 13 0 0 -6 -6 -14 -13 -17 -8 -3 -12 -20 -12 -42 2 -50 -4 -62
-26 -62 -18 0 -24 -11 -20 -34 1 -5 -4 -4 -13 3 -9 7 -17 8 -20 2 -3 -5 -1
-12 4 -14 6 -3 5 -4 -2 -3 -7 1 -14 12 -16 24 -2 12 -8 22 -14 22 -5 0 -8 -6
-5 -12 3 -7 16 -37 28 -65 18 -42 21 -59 13 -80 -9 -26 -7 -30 35 -58 25 -16
61 -54 81 -83 22 -33 48 -59 68 -67 24 -10 32 -20 32 -38 0 -14 -7 -28 -16
-31 -9 -3 -14 -13 -10 -21 6 -16 -18 -68 -27 -59 -3 4 -9 -5 -12 -19 -4 -14
-18 -35 -31 -48 -13 -12 -24 -27 -24 -33 0 -6 5 -5 12 2 21 21 64 14 81 -12
23 -34 87 -103 87 -92 0 4 -12 22 -26 40 -22 25 -24 32 -11 34 8 2 22 21 31
43 20 48 20 49 1 49 -8 0 -15 5 -15 10 0 18 17 11 66 -26 25 -20 49 -32 53
-27 139 203 211 399 231 627 45 512 -224 1002 -675 1228 -108 55 -157 71 -166
57 -5 -8 -8 -8 -14 0 -5 9 -10 9 -21 1 -7 -7 -19 -10 -26 -7 -7 2 -21 -3 -31
-11 -16 -14 -17 -14 -12 0 4 9 2 19 -4 23 -6 3 -11 0 -11 -8z m110 -193 c0 -8
-4 -12 -10 -9 -5 3 -10 13 -10 21 0 8 5 12 10 9 6 -3 10 -13 10 -21z m156 -56
c4 -7 3 -8 -4 -4 -7 4 -12 2 -12 -5 0 -7 -3 -10 -6 -6 -6 5 3 27 11 27 2 0 7
-5 11 -12z m-41 -48 c-3 -5 -12 -10 -18 -10 -7 0 -6 4 3 10 19 12 23 12 15 0z
m65 -42 c0 -4 10 -5 22 -3 15 3 18 1 11 -6 -6 -6 -22 -7 -38 -3 -20 5 -24 9
-13 16 9 7 7 8 -9 5 -13 -3 -26 0 -30 5 -3 7 -1 8 5 4 8 -5 12 1 12 16 l0 23
20 -25 c11 -14 20 -28 20 -32z m110 25 c0 -9 -3 -13 -7 -10 -3 4 -12 2 -20 -5
-10 -8 -17 -8 -26 1 -9 10 -8 11 5 6 12 -5 20 -1 24 9 8 21 24 21 24 -1z
m-176 -57 c-4 -18 -11 -25 -21 -22 -8 3 -19 6 -24 6 -6 0 -7 5 -4 11 4 6 13 8
20 5 8 -3 17 4 20 15 10 30 17 16 9 -15z m151 14 c-3 -5 -10 -10 -16 -10 -5 0
-9 5 -9 10 0 6 7 10 16 10 8 0 12 -4 9 -10z m112 -16 c-9 -9 -28 6 -21 18 4 6
10 6 17 -1 6 -6 8 -13 4 -17z m-42 6 c3 -5 1 -10 -4 -10 -6 0 -11 5 -11 10 0
6 2 10 4 10 3 0 8 -4 11 -10z m21 -40 c8 0 14 -5 14 -11 0 -5 -4 -8 -9 -5 -5
4 -11 2 -13 -4 -1 -5 -9 -6 -16 -1 -8 4 -10 15 -6 26 5 11 9 14 12 7 2 -7 10
-12 18 -12z m65 -47 c13 -16 12 -17 -3 -4 -10 7 -18 15 -18 17 0 8 8 3 21 -13z
m54 -3 c3 -5 1 -10 -4 -10 -6 0 -11 5 -11 10 0 6 2 10 4 10 3 0 8 -4 11 -10z
m-432 -40 c-3 -11 -7 -20 -9 -20 -2 0 -4 9 -4 20 0 11 4 20 9 20 5 0 7 -9 4
-20z m464 -6 c-3 -3 -12 -4 -19 -1 -8 3 -5 6 6 6 11 1 17 -2 13 -5z m-456 -41
c8 -9 9 -14 2 -10 -6 4 -13 1 -16 -5 -3 -7 -4 -3 -4 10 1 26 1 26 18 5z m436
-13 c-3 -11 -1 -20 4 -20 5 0 9 -5 9 -10 0 -6 -8 -5 -20 2 -12 8 -15 15 -8 19
6 4 7 12 4 18 -4 6 -2 11 5 11 6 0 9 -8 6 -20z m33 6 c0 -3 -4 -8 -10 -11 -5
-3 -10 -1 -10 4 0 6 5 11 10 11 6 0 10 -2 10 -4z m-465 -26 c-4 -6 -1 -18 6
-26 6 -8 9 -17 5 -21 -3 -3 -6 -1 -6 5 0 7 -7 12 -15 12 -9 0 -12 -6 -9 -17 5
-16 4 -16 -6 0 -9 15 -8 22 6 38 18 21 29 25 19 9z m425 -85 c0 -8 -4 -15 -10
-15 -5 0 -10 7 -10 15 0 8 5 15 10 15 6 0 10 -7 10 -15z m-438 -13 c4 -13 -1
-18 -16 -19 -12 -1 -15 1 -8 4 6 3 12 11 12 19 0 20 7 18 12 -4z m418 -32 c0
-11 -7 -20 -15 -20 -18 0 -19 12 -3 28 16 16 18 15 18 -8z m-415 -30 c-3 -5
-12 -10 -18 -10 -7 0 -6 4 3 10 19 12 23 12 15 0z m595 -45 c0 -5 -5 -3 -10 5
-5 8 -10 20 -10 25 0 6 5 3 10 -5 5 -8 10 -19 10 -25z m-77 -8 c-7 -11 -23 2
-23 19 0 12 2 12 14 2 8 -7 12 -16 9 -21z m-121 -4 c-3 -16 -7 -22 -10 -15 -4
13 4 42 11 42 2 0 2 -12 -1 -27z m258 2 c0 -8 -2 -15 -4 -15 -2 0 -6 7 -10 15
-3 8 -1 15 4 15 6 0 10 -7 10 -15z m-32 -35 c-15 -24 -19 -21 -11 8 3 12 9 19
14 16 5 -3 3 -14 -3 -24z m-91 -12 c-3 -8 -6 -5 -6 6 -1 11 2 17 5 13 3 -3 4
-12 1 -19z m-60 -50 c-3 -7 -5 -2 -5 12 0 14 2 19 5 13 2 -7 2 -19 0 -25z m41
20 c2 -23 7 -43 17 -58 6 -11 2 -10 -12 3 -11 9 -23 14 -28 10 -4 -5 -5 0 -2
10 4 10 7 25 7 33 0 17 16 19 18 2z m-60 -35 c13 -13 13 -15 2 -11 -9 3 -20
-4 -27 -16 -12 -20 -13 -20 -9 4 3 14 5 28 5 33 1 11 11 8 29 -10z m55 -53
c-3 -13 0 -20 8 -20 11 0 11 -2 -1 -10 -23 -15 -30 -12 -26 13 3 12 5 25 5 30
1 4 5 7 10 7 5 0 7 -9 4 -20z m-136 -12 c-3 -8 -6 -5 -6 6 -1 11 2 17 5 13 3
-3 4 -12 1 -19z m91 -25 c-2 -9 -10 -18 -18 -20 -12 -4 -13 -3 -1 5 7 5 10 15
7 21 -4 6 -2 11 4 11 6 0 10 -8 8 -17z m-87 -56 c-10 -9 -11 -8 -5 6 3 10 9
15 12 12 3 -3 0 -11 -7 -18z m90 -4 c-8 -14 -11 -15 -12 -3 0 8 -5 4 -10 -10
l-8 -25 2 25 c1 14 8 24 15 23 6 -2 12 2 12 9 0 6 3 9 6 5 3 -3 1 -14 -5 -24z
m-155 -37 c-2 -15 -36 -52 -36 -39 0 4 -5 1 -10 -7 -7 -12 -9 -10 -7 7 0 12 5
19 10 16 4 -3 11 4 14 16 6 23 32 30 29 7z m95 -9 c-6 -8 -7 -18 -3 -22 4 -5
2 -5 -5 -1 -14 8 -6 36 9 36 7 0 6 -5 -1 -13z m-56 -7 c-3 -5 -12 -10 -18 -10
-7 0 -6 4 3 10 19 12 23 12 15 0z m249 -22 c-3 -4 -12 -8 -20 -8 -8 0 -13 4
-10 8 3 5 12 9 20 9 8 0 13 -4 10 -9z m-639 -8 c3 -6 -1 -7 -9 -4 -18 7 -21
14 -7 14 6 0 13 -4 16 -10z m378 -32 c-2 -5 -10 -8 -16 -8 -7 0 -6 4 3 10 9 6
11 10 3 10 -7 0 -10 7 -6 17 6 15 7 14 13 -3 4 -10 6 -22 3 -26z m7 -44 c0 -8
-4 -14 -9 -14 -6 0 -9 9 -8 19 1 22 17 18 17 -5z m107 -8 c0 -8 -6 -12 -14 -9
-7 3 -13 9 -13 14 0 5 6 9 13 9 8 0 14 -6 14 -14z m-57 0 c0 -2 -9 -6 -20 -9
-11 -3 -18 -1 -14 4 5 9 34 13 34 5z m-73 -51 c-4 -8 -11 -15 -17 -15 -14 0
-13 27 3 33 16 6 21 1 14 -18z m-1147 5 c0 -5 -5 -10 -11 -10 -5 0 -7 5 -4 10
3 6 8 10 11 10 2 0 4 -4 4 -10z m1256 -5 c-4 -24 -16 -30 -16 -7 0 12 4 22 9
22 5 0 8 -7 7 -15z m-557 -26 c-28 -21 -30 -20 -23 8 4 15 11 19 26 15 20 -5
20 -5 -3 -23z m521 27 c0 -3 -4 -8 -10 -11 -5 -3 -10 -1 -10 4 0 6 5 11 10 11
6 0 10 -2 10 -4z m-47 -23 c-7 -2 -13 -9 -13 -14 0 -6 5 -7 11 -3 6 3 3 -5 -6
-20 -20 -30 -31 -35 -16 -7 6 10 8 21 5 24 -9 8 5 27 19 26 9 0 9 -2 0 -6z
m-1089 -33 c34 0 14 -17 -43 -37 -45 -15 -58 -17 -54 -6 4 9 0 11 -11 7 -9 -3
-16 -1 -16 5 0 6 5 11 11 11 6 0 8 7 5 16 -4 11 -2 15 8 11 8 -3 16 -1 18 5 3
8 10 7 26 -1 19 -10 21 -9 16 6 -5 17 -5 17 9 1 8 -10 22 -18 31 -18z m86 -16
c0 -8 -5 -12 -10 -9 -6 4 -8 11 -5 16 9 14 15 11 15 -7z m492 -8 c4 -19 -1
-25 -29 -35 -18 -7 -33 -19 -33 -27 0 -19 29 -18 52 3 19 17 20 16 39 -7 23
-31 23 -39 3 -68 -15 -22 -44 -30 -44 -12 0 6 7 10 16 10 26 0 9 25 -17 26
-34 1 -42 -6 -27 -24 11 -13 11 -14 -8 -4 -25 13 -37 62 -24 97 5 14 6 25 2
25 -11 1 42 40 54 40 7 0 14 -11 16 -24z m545 18 c-3 -3 -12 -4 -19 -1 -8 3
-5 6 6 6 11 1 17 -2 13 -5z m-150 -54 c-6 -16 -15 -30 -19 -30 -5 0 -2 14 7
30 9 17 17 30 19 30 3 0 -1 -13 -7 -30z m73 10 c0 -5 -4 -10 -10 -10 -5 0 -10
5 -10 10 0 6 5 10 10 10 6 0 10 -4 10 -10z m-973 -54 c-1 -45 -17 -35 -17 10
0 19 4 33 9 30 5 -3 9 -21 8 -40z m1010 12 c-2 -7 -10 -14 -18 -14 -8 -1 -16
-3 -19 -4 -22 -8 -47 -5 -43 7 3 7 9 11 13 8 5 -3 19 -1 32 4 32 13 40 13 35
-1z m53 -8 c0 -5 -6 -12 -12 -16 -7 -4 -10 -4 -6 1 4 4 3 14 -4 22 -8 11 -7
12 6 7 9 -3 16 -10 16 -14z m-396 -16 c10 -25 7 -34 -9 -34 -8 0 -15 -4 -15
-9 0 -15 -41 -24 -53 -12 -8 8 -6 11 6 11 11 0 14 5 10 16 -4 10 1 17 16 21
11 3 21 9 21 14 0 15 17 10 24 -7z m96 8 c0 -18 -39 -54 -55 -50 -14 3 -13 7
7 30 22 26 48 36 48 20z m-1210 -66 c0 -18 -17 -29 -30 -21 -8 5 -7 11 1 21
15 18 29 18 29 0z m840 -56 c-12 -23 -35 -17 -45 13 l-8 22 -4 -22 c-5 -27
-12 -28 -38 -9 -16 11 -17 18 -8 37 7 13 12 18 12 12 1 -18 26 -16 41 2 11 13
16 12 36 -10 19 -21 22 -30 14 -45z m283 12 c-5 -10 -20 -18 -32 -20 -23 -4
-28 -18 -8 -25 9 -3 9 -11 0 -38 -19 -58 -25 -116 -13 -138 9 -17 8 -21 -4
-21 -8 0 -18 -4 -21 -10 -8 -13 19 -52 31 -42 4 4 3 0 -4 -9 -11 -14 -19 -15
-48 -6 -21 6 -33 16 -30 23 3 7 -2 18 -10 25 -10 9 -11 15 -3 25 12 15 3 38
-12 29 -14 -9 -11 33 6 89 18 60 41 96 60 96 7 0 24 15 36 33 13 17 28 35 34
39 15 11 31 -30 18 -50z m87 48 c0 -5 -2 -10 -4 -10 -3 0 -8 5 -11 10 -3 6 -1
10 4 10 6 0 11 -4 11 -10z m258 -8 c-10 -2 -18 -11 -18 -20 0 -12 -3 -13 -12
-4 -9 9 -8 15 7 26 11 8 24 11 30 8 5 -4 2 -8 -7 -10z m-608 -2 c0 -5 -2 -10
-4 -10 -3 0 -8 5 -11 10 -3 6 -1 10 4 10 6 0 11 -4 11 -10z m540 -10 c0 -5 -5
-10 -11 -10 -5 0 -7 5 -4 10 3 6 8 10 11 10 2 0 4 -4 4 -10z m-940 -34 c0 -7
7 -21 16 -32 15 -18 15 -18 10 0 -5 16 -2 17 21 11 34 -8 49 -20 55 -43 4 -12
-2 -17 -18 -18 -16 -1 -24 5 -29 25 -7 24 -8 25 -15 6 -5 -11 -9 -23 -9 -27
-1 -6 34 -21 52 -23 4 0 11 -5 15 -11 9 -15 72 -23 97 -14 11 4 43 17 72 29
41 16 51 17 46 6 -7 -20 -6 -20 72 16 l68 31 25 -26 25 -25 -24 -35 c-13 -19
-27 -32 -32 -27 -9 9 -87 -27 -87 -40 0 -12 27 -11 35 1 3 6 11 10 18 10 6 0
1 -7 -12 -17 -20 -13 -21 -18 -10 -27 37 -29 41 -43 17 -66 -25 -24 -121 -70
-145 -70 -11 0 -10 -8 7 -35 32 -51 21 -110 -28 -166 l-37 -41 -57 12 -57 13
6 42 c3 28 1 45 -7 50 -9 5 -10 2 -6 -12 4 -11 2 -33 -4 -49 -10 -26 -12 -27
-22 -11 -5 11 -7 32 -4 48 4 21 0 35 -14 49 -40 40 4 73 47 36 21 -18 27 -32
26 -59 -1 -26 3 -34 13 -30 19 7 58 72 49 81 -4 4 -10 1 -12 -5 -6 -18 -23
-16 -23 2 0 8 -5 15 -10 15 -6 0 -15 12 -20 26 -13 32 2 62 35 70 34 9 32 34
-2 34 -16 0 -35 5 -43 10 -12 7 -7 12 23 25 20 8 37 20 37 25 0 12 3 13 -45
-5 -54 -19 -76 -18 -42 3 32 20 37 38 5 21 -18 -10 -24 -8 -35 7 -11 15 -11
19 2 27 22 12 19 29 -4 22 -11 -3 -22 -2 -25 4 -11 17 6 41 28 42 17 0 15 3
-12 17 -29 14 -34 14 -42 2 -6 -8 -10 -25 -10 -36 0 -22 -40 -41 -60 -29 -5 3
-12 0 -16 -6 -5 -8 -3 -9 7 -4 11 6 12 5 2 -5 -10 -11 -7 -17 17 -32 17 -10
30 -25 30 -33 0 -9 -4 -14 -9 -11 -5 4 -12 -8 -16 -24 -5 -23 -10 -28 -19 -21
-7 6 -16 7 -21 3 -14 -13 7 43 23 61 14 15 10 21 -10 18 -5 0 -9 4 -9 9 -1 6
-3 15 -4 20 -1 6 -3 16 -4 23 -1 7 -7 4 -16 -7 -8 -11 -15 -16 -15 -11 0 4
-10 0 -22 -11 -23 -19 -23 -19 -5 2 26 31 21 36 -19 14 -19 -11 -33 -16 -29
-10 12 19 -7 10 -27 -12 -11 -13 -17 -18 -14 -11 4 6 -3 14 -14 18 -11 3 -20
11 -20 16 0 6 8 5 21 -1 11 -7 23 -10 25 -7 6 5 -63 47 -77 47 -5 0 -9 5 -9
10 0 6 9 10 19 10 11 0 23 5 27 12 5 8 2 9 -9 5 -9 -3 -19 -2 -22 3 -4 6 3 10
13 10 11 0 25 6 32 14 6 8 19 12 27 9 10 -4 14 -2 10 4 -3 5 17 17 47 26 57
18 95 22 61 6 -14 -6 -10 -7 15 -2 19 4 46 6 60 6 22 -1 23 0 7 12 -26 19 -20
32 13 27 17 -2 30 -10 30 -16z m208 -41 c-3 -3 -9 2 -12 12 -6 14 -5 15 5 6 7
-7 10 -15 7 -18z m-598 -107 c-11 -23 -11 -23 9 1 23 25 27 17 11 -25 -10 -25
-13 -26 -57 -20 -65 9 -43 -11 33 -30 32 -8 66 -16 74 -19 8 -2 17 -4 19 -4 3
-1 -5 -10 -17 -21 -26 -24 -51 -28 -32 -5 15 18 12 23 -16 28 -10 2 -26 7 -34
10 -31 12 -160 14 -161 3 0 -6 -5 1 -10 15 -7 20 -15 26 -29 22 -13 -4 -20 0
-20 9 0 30 34 47 100 51 154 8 142 10 130 -15z m240 -108 c0 -5 -4 -10 -9 -10
-5 0 -17 -3 -27 -7 -16 -6 -17 -5 -4 10 17 18 40 22 40 7z m-265 -10 c7 -12
-12 -12 -40 0 -18 8 -17 9 7 9 15 1 30 -3 33 -9z m1321 -38 c-11 -10 -15 4 -8
28 l7 25 3 -23 c2 -13 1 -26 -2 -30z m185 25 c-1 -12 -15 -9 -19 4 -3 6 1 10
8 8 6 -3 11 -8 11 -12z m-1746 -27 c4 -6 10 -8 15 -5 4 3 10 -8 12 -24 4 -27
3 -28 -23 -21 -15 5 -30 6 -33 2 -8 -7 -8 22 0 42 7 18 20 21 29 6z m1685 -9
c0 -10 -8 -25 -17 -32 -15 -12 -16 -12 -10 4 4 10 7 25 7 33 0 8 5 14 10 14 6
0 10 -8 10 -19z m-1122 -37 c-3 -24 0 -34 10 -34 7 0 10 -5 7 -10 -4 -6 -1
-17 5 -25 9 -11 6 -22 -18 -52 -33 -43 -46 -73 -32 -73 6 0 10 -4 10 -10 0
-15 -62 -11 -84 5 -11 8 -16 21 -13 30 8 19 6 19 -29 0 -18 -9 -55 -15 -99
-14 l-70 0 67 23 c70 25 152 68 164 87 4 8 1 8 -13 1 -10 -6 -47 -14 -81 -18
-54 -6 -68 -3 -115 19 -43 20 -56 31 -60 54 -8 41 0 46 62 39 151 -18 205 -18
236 2 40 26 58 18 53 -24z m182 17 c0 -12 -20 -25 -27 -18 -7 7 6 27 18 27 5
0 9 -4 9 -9z m995 -6 c22 -8 32 -14 23 -15 -10 0 -18 -4 -18 -10 0 -18 -17
-10 -34 15 -9 14 -15 25 -14 25 2 0 21 -7 43 -15z m-360 -21 c8 3 15 1 15 -4
0 -6 -6 -10 -14 -10 -23 0 -46 11 -46 22 0 6 6 5 15 -2 8 -7 22 -10 30 -6z
m-260 -34 c-3 -5 -15 -10 -26 -10 -10 0 -19 5 -19 10 0 6 12 10 26 10 14 0 23
-4 19 -10z m-70 -20 c-3 -5 -14 -10 -23 -10 -15 0 -15 2 -2 10 20 13 33 13 25
0z m242 -6 c-3 -3 -12 -4 -19 -1 -8 3 -5 6 6 6 11 1 17 -2 13 -5z m-640 -79
l0 -55 -34 0 c-27 0 -34 4 -30 14 4 10 1 13 -9 9 -7 -3 -14 -1 -14 3 0 12 38
74 45 74 4 0 3 -6 -1 -12 -6 -10 -4 -10 8 0 13 10 17 10 21 0 4 -8 6 -7 6 5 1
9 3 17 5 17 2 0 3 -25 3 -55z m622 -155 c1 -13 0 -13 -9 0 -5 8 -9 24 -9 35
l0 20 9 -20 c5 -11 9 -27 9 -35z m-676 -107 c9 -3 17 -12 17 -19 0 -8 9 -14
20 -14 11 0 20 -4 20 -10 0 -5 9 -10 20 -10 13 0 20 -7 20 -20 0 -25 -25 -36
-45 -20 -8 6 -18 9 -24 6 -15 -10 -71 27 -71 47 0 11 -12 22 -32 30 l-33 11
30 7 c17 4 37 4 45 2 8 -3 23 -8 33 -10z m673 -128 c-2 -5 -9 -9 -15 -7 -6 1
-11 -3 -11 -9 0 -18 -55 -5 -58 14 -3 15 3 18 42 15 25 -2 44 -7 42 -13z
m-673 -100 c-2 -8 3 -25 12 -38 9 -14 15 -34 13 -44 -2 -14 4 -18 30 -18 28 0
32 -3 28 -20 -3 -11 -6 -39 -6 -62 0 -37 -4 -45 -30 -58 -52 -27 -77 -20 -136
40 -30 30 -65 57 -78 61 -14 3 -32 14 -42 25 -9 10 -33 21 -53 24 -20 4 -46
11 -59 16 -16 6 -44 4 -88 -6 -93 -21 -104 -20 -77 7 21 20 33 22 160 23 129
1 140 -1 172 -22 40 -28 54 -28 92 -6 28 17 38 33 20 33 -11 0 -41 56 -41 76
0 7 8 17 18 23 13 7 23 4 44 -16 14 -14 24 -31 21 -38z m-605 -153 c2 -13 -3
-25 -12 -28 -9 -3 -16 -11 -16 -18 -1 -17 -48 -48 -68 -44 -27 5 -25 31 5 70
40 52 85 62 91 20z m1048 -69 c33 -38 37 -69 15 -110 -14 -28 -34 -38 -89 -47
-39 -6 -43 -4 -52 19 -7 18 -5 32 7 54 17 29 17 29 -15 56 -36 31 -38 37 -16
60 12 12 28 14 67 9 43 -5 57 -12 83 -41z m-3480 -51 c28 -18 48 -102 25 -102
-5 0 -13 -9 -16 -20 -4 -11 -11 -17 -17 -14 -8 5 -9 -2 -5 -22 l6 -29 -48 3
c-53 4 -54 7 -31 102 18 77 49 107 86 82z m2701 -46 c45 -21 53 -30 63 -65 8
-30 16 -41 30 -41 24 0 26 -18 3 -35 -10 -7 -16 -25 -15 -46 2 -55 -6 -70 -36
-66 -23 4 -27 8 -24 33 2 16 7 30 11 32 5 1 6 14 3 28 -5 25 -6 26 -61 19 -31
-4 -60 -11 -66 -16 -5 -5 -9 -27 -8 -50 1 -22 -1 -39 -5 -37 -4 2 -19 10 -34
17 -25 13 -30 12 -49 -5 l-22 -19 16 32 c16 30 15 33 -8 78 -29 54 -26 77 16
129 28 33 35 36 82 36 34 0 70 -9 104 -24z m-1942 -46 c-3 -5 -13 -10 -21 -10
-8 0 -14 -6 -14 -13 0 -9 13 -13 39 -13 22 1 37 -2 34 -6 -2 -5 1 -8 8 -8 8 0
8 -4 -1 -15 -7 -8 -10 -21 -7 -29 6 -14 -76 -61 -91 -52 -5 3 -18 -1 -28 -9
-21 -16 -38 -20 -30 -7 2 4 -4 13 -15 20 -16 10 -19 9 -19 -3 0 -18 -20 -20
-20 -2 -1 7 -6 5 -14 -6 -13 -17 -15 -16 -21 12 -7 33 -1 51 18 51 7 0 13 10
14 22 2 20 0 20 -22 -7 -13 -17 -24 -24 -25 -17 0 6 5 12 10 12 6 0 10 11 10
25 0 14 3 24 8 24 4 -1 9 0 12 1 3 1 16 3 30 5 14 1 36 5 49 9 16 6 21 5 17
-3 -11 -18 3 -13 26 9 22 20 64 28 53 10z m3362 -17 c6 -18 -15 -25 -37 -11
-11 7 -20 15 -20 18 0 11 53 5 57 -7z m43 -4 c0 -5 -7 -9 -15 -9 -15 0 -20 12
-9 23 8 8 24 -1 24 -14z m-3635 -52 c6 -5 3 -7 -7 -3 -11 3 -23 -3 -31 -14 -8
-11 -16 -18 -18 -16 -2 3 -3 -13 -1 -35 3 -24 0 -39 -7 -39 -6 0 -10 3 -10 8
5 28 -5 55 -28 83 -22 25 -24 31 -10 26 45 -17 65 -18 78 -4 8 8 16 12 19 9 3
-4 10 -11 15 -15z m2990 -4 c13 -31 35 -155 29 -164 -3 -5 -14 -9 -24 -9 -13
0 -17 -5 -14 -15 4 -8 1 -15 -6 -15 -7 0 -9 -8 -5 -20 5 -16 2 -20 -14 -20
-23 0 -28 15 -8 23 7 3 5 6 -5 6 -25 1 -22 20 5 31 17 7 18 9 5 9 -25 1 -22
20 5 31 19 9 18 10 -10 7 -18 -2 -34 0 -35 5 -7 19 5 108 13 108 6 0 7 -15 3
-35 -3 -20 -2 -35 3 -35 14 0 33 46 33 80 0 33 14 40 25 13z m145 11 c0 -13
-21 -44 -30 -44 -6 0 -10 9 -10 21 0 11 5 17 10 14 6 -3 10 -1 10 4 0 6 5 11
10 11 6 0 10 -3 10 -6z m-3132 -36 c17 -22 24 -58 12 -58 -6 0 -8 6 -4 13 6
10 4 10 -7 0 -18 -17 -29 -16 -29 3 0 9 -5 12 -12 8 -9 -6 -9 -3 0 9 8 9 11
21 7 27 -9 14 21 13 33 -2z m-112 -29 c3 -6 2 -15 -4 -21 -6 -6 -11 -2 -15 11
-5 22 7 29 19 10z m947 -10 c14 -16 17 -30 12 -60 -5 -32 -4 -39 9 -39 21 0
48 -43 40 -64 -8 -20 -52 -32 -66 -18 -6 6 -7 20 -3 33 10 30 8 35 -11 31 -9
-2 -26 4 -40 13 -24 15 -33 8 -14 -11 7 -7 2 -15 -15 -24 -14 -7 -25 -18 -25
-23 0 -23 -30 18 -36 49 -7 39 8 64 37 64 12 0 23 10 29 25 8 21 36 41 60 44
3 1 14 -8 23 -20z m-1010 -9 c3 -11 1 -20 -4 -20 -5 0 -9 9 -9 20 0 11 2 20 4
20 2 0 6 -9 9 -20z m-33 -25 c0 -13 -18 -30 -25 -23 -2 1 -7 16 -11 32 -6 26
-5 27 15 17 11 -7 21 -18 21 -26z m2780 11 c0 -7 14 -34 32 -60 25 -39 35 -47
55 -43 34 6 32 -30 -2 -39 -15 -4 -33 -20 -42 -38 -16 -31 -58 -76 -71 -76 -8
0 -5 201 4 247 6 31 24 37 24 9z m628 -19 c3 -12 -3 -17 -20 -17 -18 0 -20 -2
-8 -10 18 -11 8 -23 -13 -14 -9 3 -14 12 -11 20 2 8 6 21 9 30 6 20 39 14 43
-9z m-3848 3 c0 -5 -4 -10 -10 -10 -5 0 -10 5 -10 10 0 6 5 10 10 10 6 0 10
-4 10 -10z m3020 -21 c0 -6 -4 -7 -10 -4 -5 3 -10 11 -10 16 0 6 5 7 10 4 6
-3 10 -11 10 -16z m-1880 -4 c16 -19 8 -37 -21 -52 -65 -32 -100 -45 -106 -39
-10 10 13 71 26 68 7 -1 24 7 38 18 31 24 46 25 63 5z m1256 -40 c3 -8 -2 -35
-12 -60 -9 -25 -17 -60 -18 -78 -1 -18 -5 -33 -11 -33 -48 -7 -64 -29 -56 -78
1 -4 -3 -14 -10 -22 -6 -8 -9 -20 -6 -28 3 -7 1 -18 -5 -24 -6 -6 -12 -34 -14
-64 -2 -29 -6 -71 -10 -93 -3 -22 -6 -50 -6 -62 0 -18 -6 -23 -25 -23 -43 0
-149 -58 -186 -100 -19 -22 -36 -40 -39 -40 -4 0 -10 12 -16 28 -8 24 -5 32
34 72 38 40 45 43 67 33 18 -8 36 -9 66 -1 36 9 39 12 30 30 -6 10 -21 24 -35
30 -15 7 -24 20 -24 34 0 13 -5 26 -11 30 -6 4 -9 20 -6 39 6 37 -7 55 -40 55
-33 0 -39 -26 -15 -68 24 -43 20 -88 -9 -95 -10 -3 -22 -1 -25 4 -3 5 -23 9
-44 9 -42 0 -47 14 -17 44 20 20 22 37 5 54 -18 18 -45 15 -65 -7 -22 -23 -71
-20 -93 6 -22 26 -80 73 -91 73 -5 0 -9 -7 -9 -15 0 -8 -5 -15 -11 -15 -5 0
-7 4 -4 10 3 5 0 7 -8 4 -8 -3 -17 1 -20 9 -4 10 -16 13 -40 11 -28 -3 -36 0
-40 15 -4 16 -11 19 -43 15 -21 -3 -42 -10 -46 -17 -6 -9 -10 -9 -20 1 -6 6
-22 12 -34 12 -13 0 -26 5 -29 11 -9 14 -65 1 -89 -20 -22 -20 -100 -19 -124
2 -22 18 -52 29 -52 18 0 -4 -15 -16 -34 -26 -32 -17 -36 -18 -60 -2 -14 9
-32 17 -41 17 -23 0 -18 28 7 41 52 28 87 28 118 3 l29 -25 26 23 c15 12 41
24 58 25 18 1 66 3 107 5 41 3 95 12 120 20 25 9 62 19 83 23 28 4 37 11 37
25 0 12 9 22 24 26 28 7 46 -1 46 -19 0 -16 38 -40 50 -32 5 3 7 19 3 35 -5
29 -4 30 29 30 18 0 44 7 56 16 12 8 26 13 32 9 22 -13 61 8 78 44 16 33 21
36 72 43 30 3 102 7 160 8 58 1 132 6 165 10 33 4 66 8 73 9 7 0 15 -6 18 -14z
m-520 -6 c13 -22 -38 -49 -92 -49 -36 0 -59 -6 -77 -20 -31 -24 -60 -26 -82
-3 -16 16 -16 17 0 29 10 7 38 16 64 20 25 4 57 13 71 20 31 16 106 18 116 3z
m574 -43 c0 -7 -7 -19 -15 -26 -12 -10 -15 -9 -15 7 0 11 3 23 7 26 11 12 23
8 23 -7z m1284 -45 c9 -14 -44 -45 -56 -33 -7 7 -16 7 -28 0 -14 -9 -22 -8
-36 6 -14 15 -15 19 -3 27 18 11 116 12 123 0z m-356 -75 c-1 -26 -6 -36 -22
-40 -28 -7 -29 -3 -10 38 22 45 34 46 32 2z m-649 -120 c16 -16 35 -47 42 -70
7 -23 16 -45 21 -50 13 -16 9 -35 -12 -64 -16 -22 -21 -48 -25 -134 -3 -65 -1
-108 5 -108 5 0 14 -10 21 -21 9 -18 7 -27 -12 -53 -14 -18 -23 -46 -24 -66
l0 -35 -60 -3 c-33 -2 -68 -8 -78 -13 -30 -17 -32 17 -4 82 17 39 22 61 15 65
-14 9 -31 -14 -69 -89 -28 -55 -32 -97 -8 -97 5 0 9 -7 9 -15 0 -24 -19 -18
-32 10 -6 14 -15 25 -20 25 -4 0 -8 6 -8 13 0 7 -10 30 -21 52 -45 83 -58 137
-49 211 6 63 11 74 50 117 23 25 47 44 51 41 5 -3 9 2 9 10 0 26 -27 18 -50
-14 -12 -16 -26 -30 -31 -30 -13 0 -11 37 2 45 6 4 8 22 4 45 -6 33 -2 42 29
76 20 22 36 44 36 49 0 20 45 49 72 46 15 -1 39 4 54 12 30 16 33 15 83 -37z
m1496 -6 c3 -5 2 -10 -4 -10 -5 0 -13 5 -16 10 -3 6 -2 10 4 10 5 0 13 -4 16
-10z m-2320 -181 c10 -15 -1 -23 -20 -15 -9 3 -13 10 -10 16 8 13 22 13 30 -1z
m1019 -34 c-4 -8 -10 -12 -15 -9 -5 3 -9 0 -9 -5 0 -6 -8 -11 -17 -11 -13 0
-9 6 12 20 36 24 36 24 29 5z m-24 -96 c0 -5 -6 -9 -13 -9 -8 0 -14 6 -14 14
0 8 6 12 14 9 7 -3 13 -9 13 -14z m-580 -22 c0 -7 14 -18 32 -25 30 -11 31
-13 14 -25 -18 -14 -18 -15 2 -35 22 -22 30 -62 13 -62 -6 0 -17 10 -25 22
-12 16 -18 19 -28 10 -11 -8 -17 -6 -27 10 -7 11 -8 17 -2 13 8 -4 9 10 5 49
-5 39 -3 56 5 56 6 0 11 -6 11 -13z m1610 4 c0 -3 12 -12 28 -19 43 -20 65
-40 57 -52 -5 -9 -10 -9 -18 -1 -9 9 -15 3 -23 -21 -9 -28 -17 -34 -50 -40
-21 -3 -48 -9 -59 -13 -14 -4 -30 1 -48 15 -36 28 -39 100 -6 124 21 15 119
21 119 7z m-914 -84 c2 -34 -1 -78 -5 -97 l-8 -35 -41 45 c-45 48 -51 70 -27
90 8 7 15 19 15 26 0 14 51 46 60 38 2 -3 5 -33 6 -67z m-856 54 c-49 -12 -88
-41 -114 -83 -35 -58 -76 -106 -76 -90 0 19 86 137 117 162 16 12 39 20 62 19
31 -1 32 -2 11 -8z m-1430 -61 c0 -5 -8 -10 -17 -10 -15 0 -16 2 -3 10 19 12
20 12 20 0z m1666 -113 c8 -26 -2 -32 -33 -21 -19 7 -26 17 -28 40 l-2 32 28
-17 c16 -9 32 -24 35 -34z m-471 24 c-3 -6 -11 -8 -17 -5 -6 4 -5 9 3 15 16
10 23 4 14 -10z m1953 -14 c32 -30 28 -37 -23 -37 -45 0 -95 -17 -95 -32 0 -4
10 -8 23 -8 18 0 15 -4 -18 -25 -22 -13 -43 -25 -47 -25 -15 0 -8 32 12 57 16
20 17 29 9 40 -14 16 -15 14 31 42 39 23 73 20 108 -12z m-1922 -44 c22 -30
17 -46 -11 -39 -21 5 -25 3 -26 -16 0 -18 -3 -15 -13 12 -19 53 18 84 50 43z
m1054 -35 c-1 -24 -9 -59 -20 -78 l-19 -35 -1 51 c0 48 17 104 33 104 4 0 7
-19 7 -42z m1000 -74 c0 -46 -4 -63 -15 -68 -23 -9 -18 -24 15 -41 40 -21 38
-41 -5 -59 -20 -9 -39 -26 -45 -40 -7 -19 -18 -26 -53 -31 -79 -12 -85 -6 -45
45 20 25 40 44 47 43 6 -2 11 4 11 12 0 9 6 12 15 9 8 -4 22 -3 32 0 14 6 14
9 -5 26 -18 17 -25 18 -47 8 -14 -6 -28 -8 -31 -5 -12 11 5 37 24 37 10 0 27
7 38 15 19 14 18 14 -3 15 -18 0 -23 6 -23 26 0 26 20 54 39 54 6 0 16 9 23
20 18 29 28 6 28 -66z m-1194 53 c4 -4 13 -2 21 4 10 9 13 8 13 -1 0 -7 7 -10
15 -6 9 3 15 0 15 -10 0 -8 -4 -12 -10 -9 -5 3 -10 -1 -10 -9 0 -14 -28 -21
-113 -30 -33 -3 -48 -16 -21 -17 10 -1 24 -2 29 -4 6 -1 13 -3 18 -3 4 -1 -3
-12 -15 -24 l-23 -23 50 -5 c62 -7 80 -17 65 -35 -7 -8 -9 -18 -6 -24 9 -14
-4 -41 -19 -41 -7 0 -15 -7 -19 -15 -14 -36 -116 -5 -167 52 -34 37 -69 88
-69 101 0 6 9 8 20 5 14 -4 19 -1 16 8 -2 8 -7 29 -10 47 l-6 34 31 -26 c34
-29 51 -33 43 -11 -4 8 -12 15 -20 15 -27 0 -14 19 19 29 37 10 142 9 153 -2z
m1059 -27 c3 -5 -1 -10 -10 -10 -9 0 -13 5 -10 10 3 6 8 10 10 10 2 0 7 -4 10
-10z m272 -36 c-9 -9 -28 6 -21 18 4 6 10 6 17 -1 6 -6 8 -13 4 -17z m-332 -4
c-3 -5 -20 -10 -36 -10 -18 0 -28 4 -24 10 3 6 20 10 36 10 18 0 28 -4 24 -10z
m-65 -25 c14 -14 41 -38 60 -54 l34 -29 -19 -41 c-10 -23 -27 -47 -37 -52 -23
-12 -68 -1 -68 17 0 8 -4 14 -9 14 -6 0 -9 37 -8 85 1 47 6 85 12 85 5 0 21
-11 35 -25z m-2150 -25 c12 -12 18 -25 15 -31 -10 -15 5 -69 20 -69 7 0 18 -6
24 -13 8 -10 4 -19 -19 -35 -30 -22 -60 -29 -60 -14 0 5 11 14 25 20 14 6 25
16 25 22 0 14 -12 12 -38 -6 -13 -9 -26 -13 -30 -10 -3 4 -7 31 -8 62 -1 31
-5 58 -8 61 -7 7 13 33 25 33 5 0 18 -9 29 -20z m1970 -5 c10 -12 10 -15 -4
-15 -9 0 -16 7 -16 15 0 8 2 15 4 15 2 0 9 -7 16 -15z m-1590 -65 c0 -5 -2
-10 -4 -10 -3 0 -8 5 -11 10 -3 6 -1 10 4 10 6 0 11 -4 11 -10z m-10 -69 c-6
-23 -13 -41 -15 -41 -6 0 4 70 11 82 13 20 15 -2 4 -41z m1320 -4 c0 -18 -2
-19 -10 -7 -13 20 -13 43 0 35 6 -3 10 -16 10 -28z m-1230 -16 c0 -17 -4 -32
-9 -35 -12 -8 -23 23 -16 45 10 29 25 22 25 -10z m120 -26 c0 -12 -7 -25 -15
-29 -8 -3 -15 -12 -15 -20 0 -7 -6 -16 -14 -19 -12 -5 -12 0 -1 31 8 20 16 45
19 55 8 24 26 12 26 -18z m-560 -19 c0 -2 -9 -6 -20 -9 -11 -3 -20 -1 -20 4 0
5 9 9 20 9 11 0 20 -2 20 -4z m790 0 c0 -3 -4 -8 -10 -11 -5 -3 -10 -1 -10 4
0 6 5 11 10 11 6 0 10 -2 10 -4z m-436 -27 c-6 -11 -24 -2 -24 11 0 5 7 7 15
4 8 -4 12 -10 9 -15z m43 -11 c-3 -8 -6 -5 -6 6 -1 11 2 17 5 13 3 -3 4 -12 1
-19z m63 -58 c0 -5 -9 -10 -20 -10 -11 0 -20 5 -20 10 0 6 9 10 20 10 11 0 20
-4 20 -10z m229 -30 c6 -19 7 -30 2 -25 -5 6 -13 24 -17 40 -9 39 0 30 15 -15z
m-109 14 c0 -2 -7 -4 -15 -4 -8 0 -15 4 -15 10 0 5 7 7 15 4 8 -4 15 -8 15
-10z m-655 -155 c39 -63 41 -95 5 -86 -22 6 -130 -19 -144 -34 -6 -5 -22 -9
-36 -9 -14 0 -30 -4 -35 -9 -6 -6 -30 -12 -55 -15 -105 -14 -163 -38 -126 -52
9 -4 28 -2 42 5 14 6 37 11 52 10 24 0 22 -3 -18 -20 -25 -11 -53 -28 -63 -37
-16 -14 -19 -14 -27 -2 -6 8 -10 22 -10 31 0 9 -8 19 -18 21 -21 6 -32 51 -32
128 l0 45 48 13 c26 6 103 25 172 42 69 16 139 33 155 38 37 11 43 7 90 -69z
m298 39 c62 -44 77 -142 31 -198 -49 -58 -111 -74 -178 -46 -60 25 -97 99 -82
161 4 14 21 42 39 61 50 55 129 64 190 22z m393 6 c-4 -9 -9 -15 -11 -12 -3 3
-3 13 1 22 4 9 9 15 11 12 3 -3 3 -13 -1 -22z m944 -126 c-13 -13 -20 -18 -16
-11 3 6 0 13 -6 16 -8 3 -3 9 12 15 34 13 36 8 10 -20z m-1978 -184 c-18 -15
-30 -19 -37 -13 -13 13 19 38 46 36 17 -1 15 -4 -9 -23z"/>
<path d="M8710 5120 c0 -5 5 -10 11 -10 5 0 7 5 4 10 -3 6 -8 10 -11 10 -2 0
-4 -4 -4 -10z"/>
<path d="M8340 5090 c-13 -9 -13 -10 0 -10 8 0 22 5 30 10 13 9 13 10 0 10 -8
0 -22 -5 -30 -10z"/>
<path d="M8450 5075 c-11 -13 -8 -15 14 -15 16 0 26 5 26 15 0 8 -6 15 -14 15
-7 0 -19 -7 -26 -15z"/>
<path d="M8375 5050 c3 -5 10 -10 16 -10 5 0 9 5 9 10 0 6 -7 10 -16 10 -8 0
-12 -4 -9 -10z"/>
<path d="M8348 5023 c7 -3 16 -2 19 1 4 3 -2 6 -13 5 -11 0 -14 -3 -6 -6z"/>
<path d="M5686 3892 c-3 -4 4 -9 15 -9 23 -2 25 3 4 10 -8 4 -16 3 -19 -1z"/>
<path d="M5685 3861 c-3 -5 -2 -12 3 -15 5 -3 9 1 9 9 0 17 -3 19 -12 6z"/>
<path d="M7067 3653 c-14 -13 -7 -43 13 -53 10 -6 37 -8 58 -4 25 4 42 2 46
-5 4 -6 20 -11 37 -11 22 0 29 5 29 19 0 21 -32 35 -105 46 -22 4 -47 9 -56
11 -8 2 -18 1 -22 -3z"/>
<path d="M6860 3595 c-103 -51 -90 -79 35 -76 107 3 138 13 133 44 -2 17 -11
23 -38 25 -19 2 -39 10 -43 18 -11 19 -33 16 -87 -11z"/>
<path d="M6705 3409 c-4 -6 -5 -13 -2 -16 7 -7 27 6 27 18 0 12 -17 12 -25 -2z"/>
<path d="M7511 3221 c-11 -7 -9 -10 8 -13 39 -6 27 -22 -37 -53 -61 -29 -86
-51 -76 -67 7 -12 48 -10 61 3 16 16 63 0 63 -22 0 -14 -7 -19 -30 -19 -38 0
-38 -11 0 -28 27 -12 34 -11 64 7 40 25 64 51 47 51 -6 0 -11 5 -11 11 0 6 7
9 15 6 8 -4 17 -2 20 3 4 6 1 10 -4 10 -6 0 -11 13 -11 29 0 17 -5 33 -11 37
-6 3 -9 14 -6 24 3 12 -2 20 -17 24 -30 8 -59 7 -75 -3z m74 -21 c3 -5 1 -10
-4 -10 -6 0 -11 5 -11 10 0 6 2 10 4 10 3 0 8 -4 11 -10z"/>
<path d="M7621 3059 c-13 -17 -21 -33 -17 -36 8 -9 56 37 56 54 0 20 -13 15
-39 -18z"/>
<path d="M7625 2970 c-3 -5 3 -10 14 -10 11 0 23 5 26 10 3 6 -3 10 -14 10
-11 0 -23 -4 -26 -10z"/>
<path d="M7640 2930 c-12 -8 -10 -10 8 -10 13 0 20 4 17 10 -7 12 -6 12 -25 0z"/>
<path d="M7695 2550 c-3 -5 1 -10 9 -10 8 0 18 5 21 10 3 6 -1 10 -9 10 -8 0
-18 -4 -21 -10z"/>
<path d="M6388 2254 c6 -3 10 -10 6 -15 -3 -5 4 -9 16 -9 30 0 20 24 -11 27
-13 1 -18 0 -11 -3z"/>
<path d="M6345 2240 c-3 -5 1 -10 9 -10 9 0 16 5 16 10 0 6 -4 10 -9 10 -6 0
-13 -4 -16 -10z"/>
<path d="M6105 2180 c-4 -6 -11 -8 -16 -5 -5 4 -9 1 -9 -4 0 -6 6 -11 14 -11
22 0 46 11 46 21 0 12 -27 11 -35 -1z"/>
<path d="M6447 2163 c-10 -10 -34 -23 -55 -30 l-37 -12 35 5 c19 3 52 10 73
15 32 9 36 13 27 25 -16 18 -22 18 -43 -3z"/>
<path d="M6085 2090 c-3 -5 -3 -10 2 -10 4 0 2 -4 -5 -9 -11 -7 -11 -9 1 -14
16 -6 57 18 57 34 0 12 -47 12 -55 -1z"/>
<path d="M6176 2081 c-19 -7 -18 -8 3 -14 15 -3 29 0 38 9 13 12 12 14 -4 13
-10 0 -27 -4 -37 -8z"/>
<path d="M6650 2166 c0 -2 8 -10 18 -17 15 -13 16 -12 3 4 -13 16 -21 21 -21
13z"/>
<path d="M6760 2166 c0 -2 8 -10 18 -17 15 -13 16 -12 3 4 -13 16 -21 21 -21
13z"/>
<path d="M6720 2080 c-9 -6 -10 -10 -3 -10 6 0 15 5 18 10 8 12 4 12 -15 0z"/>
<path d="M8495 6851 c-3 -5 0 -13 6 -16 5 -4 8 -13 5 -21 -3 -8 -1 -14 4 -14
6 0 10 5 10 10 0 17 18 11 40 -12 l21 -23 -10 27 c-8 22 -7 29 7 37 14 8 14
11 2 11 -8 1 -29 3 -47 6 -18 2 -35 0 -38 -5z"/>
<path d="M8041 6823 c-1 -24 14 -39 24 -23 3 5 2 10 -4 10 -5 0 -12 8 -14 18
-4 13 -5 12 -6 -5z"/>
<path d="M7940 6821 c0 -6 5 -13 10 -16 6 -3 10 1 10 9 0 9 -4 16 -10 16 -5 0
-10 -4 -10 -9z"/>
<path d="M8139 6808 c5 -15 17 -23 32 -24 14 0 30 -3 37 -8 6 -4 12 -2 12 3 0
11 -12 15 -43 11 -11 -1 -21 7 -24 19 -3 12 -9 21 -14 21 -5 0 -5 -10 0 -22z"/>
<path d="M8110 6811 c0 -5 5 -13 10 -16 6 -3 10 -2 10 4 0 5 -4 13 -10 16 -5
3 -10 2 -10 -4z"/>
<path d="M6746 6794 c-244 -53 -439 -204 -512 -399 -30 -79 -26 -204 9 -279
56 -122 149 -201 288 -247 63 -21 93 -24 204 -24 150 1 207 14 354 82 71 33
97 41 105 32 7 -8 7 -10 1 -6 -6 3 -11 -2 -12 -11 0 -9 -3 -35 -7 -57 -5 -34
-5 -37 5 -20 7 10 13 32 15 48 3 47 15 52 87 39 36 -7 85 -12 111 -12 43 0 85
-23 87 -47 0 -5 1 -27 3 -51 2 -44 24 -72 38 -49 5 8 17 1 38 -22 35 -40 36
-48 14 -73 -14 -14 -14 -20 -4 -33 8 -10 9 -15 1 -15 -6 0 -10 -3 -9 -7 3 -12
-13 -53 -20 -53 -15 1 -40 27 -44 45 -2 16 2 19 20 17 12 -2 22 2 22 8 0 6
-16 10 -37 9 -21 -1 -47 2 -58 6 -20 8 -20 8 -1 -13 16 -18 17 -24 6 -37 -12
-14 -10 -15 13 -10 23 6 27 4 27 -13 0 -12 6 -19 17 -18 11 1 19 -9 23 -31 4
-17 20 -43 35 -57 34 -32 46 -34 17 -3 -25 27 -38 73 -24 90 9 12 72 194 72
210 0 4 -8 2 -18 -4 -14 -9 -25 -8 -50 5 -18 9 -38 14 -44 10 -7 -4 -8 -3 -4
4 4 7 1 12 -8 12 -10 0 -16 8 -15 23 1 16 3 17 6 5 7 -29 66 -34 106 -9 43 27
50 26 42 -1 -5 -20 -4 -21 5 -5 6 9 9 21 5 26 -3 5 -1 12 4 15 5 4 19 35 31
71 12 35 30 75 41 89 10 13 19 36 19 50 0 14 11 38 25 53 43 48 50 57 50 63 2
21 28 80 36 80 5 0 9 7 9 15 0 8 4 15 9 15 4 0 6 11 4 24 -3 13 0 27 6 30 20
13 11 64 -20 123 -34 61 -69 99 -107 114 -30 12 -135 12 -128 0 7 -11 -22 -23
-35 -15 -5 3 -9 1 -9 -4 0 -5 -12 -17 -27 -26 l-28 -17 24 21 c13 11 21 23 19
26 -8 7 -98 -98 -92 -108 6 -10 -26 -6 -43 5 -8 5 -13 3 -13 -5 0 -7 -18 24
-40 68 -62 129 -161 205 -316 244 -92 24 -227 25 -328 4z m191 -209 c71 -32
136 -102 163 -173 29 -75 25 -195 -9 -260 -28 -55 -90 -115 -149 -144 -68 -33
-206 -33 -274 0 -60 30 -120 90 -150 150 -31 63 -33 218 -4 272 89 165 261
228 423 155z m513 -206 c0 -5 -4 -9 -8 -9 -5 0 -9 7 -9 15 0 8 4 12 9 9 4 -3
8 -9 8 -15z m165 -49 c-3 -5 -10 -10 -16 -10 -5 0 -9 5 -9 10 0 6 7 10 16 10
8 0 12 -4 9 -10z m-188 -32 c-3 -8 -6 -5 -6 6 -1 11 2 17 5 13 3 -3 4 -12 1
-19z m46 -28 c6 -24 -11 -38 -19 -16 -5 14 -9 14 -35 0 -29 -14 -29 -14 -17 5
12 19 26 27 54 30 7 0 14 -8 17 -19z m227 -43 c11 -6 20 -15 20 -19 0 -11 -18
-10 -25 2 -3 6 -11 10 -16 10 -6 0 -7 -5 -3 -11 4 -7 -1 -10 -12 -7 -11 2 -17
7 -14 12 3 4 -8 14 -25 22 l-30 14 43 -5 c24 -3 52 -11 62 -18z m-264 -18 c-2
-17 -9 -36 -15 -42 -13 -13 -14 -4 -5 42 8 40 25 41 20 0z m-58 -34 c-1 -13
-6 -21 -10 -17 -5 5 -6 16 -2 25 9 24 14 21 12 -8z m270 -54 c-5 -2 -15 2 -21
8 -9 9 -8 14 3 21 11 7 17 4 21 -8 4 -9 2 -19 -3 -21z m-233 -41 c1 -45 -3
-66 -9 -60 -6 6 -17 10 -26 10 -9 0 -29 13 -45 30 l-28 29 46 20 c26 11 47 25
47 31 0 5 3 10 8 10 4 0 7 -31 7 -70z"/>
<path d="M6857 6412 c-20 -22 -22 -48 -5 -58 8 -5 9 -2 4 11 -13 34 50 75 69
45 3 -5 11 -10 17 -10 7 0 6 6 -2 15 -17 21 -63 19 -83 -3z"/>
<path d="M6970 6366 c0 -2 7 -7 16 -10 8 -3 12 -2 9 4 -6 10 -25 14 -25 6z"/>
<path d="M6672 6299 c-22 -8 -38 -48 -29 -71 3 -7 6 -2 6 13 1 14 6 30 13 37
16 16 51 15 67 0 10 -11 11 -10 6 4 -8 20 -34 27 -63 17z"/>
<path d="M6907 6217 c-8 -31 -42 -48 -78 -41 -24 5 -24 4 -2 -7 43 -23 100 14
91 59 -3 12 -6 8 -11 -11z"/>
<path d="M8310 6787 c0 -8 9 -22 20 -32 17 -16 20 -16 20 -2 0 8 6 18 13 21 6
3 0 3 -16 -1 -22 -4 -26 -2 -21 11 3 9 1 16 -5 16 -6 0 -11 -6 -11 -13z"/>
<path d="M8045 6770 c-3 -5 -1 -10 4 -10 6 0 11 5 11 10 0 6 -2 10 -4 10 -3 0
-8 -4 -11 -10z"/>
<path d="M8175 6750 c10 -11 22 -17 26 -14 11 6 -15 34 -32 34 -8 0 -6 -7 6
-20z"/>
<path d="M8242 6758 c2 -6 15 -18 29 -27 l24 -15 -24 27 c-26 29 -35 34 -29
15z"/>
<path d="M8275 6760 c3 -5 8 -10 11 -10 2 0 4 5 4 10 0 6 -5 10 -11 10 -5 0
-7 -4 -4 -10z"/>
<path d="M7917 6743 c-3 -5 5 -8 18 -8 13 0 21 3 18 8 -2 4 -10 7 -18 7 -8 0
-16 -3 -18 -7z"/>
<path d="M8620 6740 c0 -5 5 -10 10 -10 6 0 10 5 10 10 0 6 -4 10 -10 10 -5 0
-10 -4 -10 -10z"/>
<path d="M8705 6722 c-6 -4 -12 -23 -13 -42 l-2 -35 15 28 c17 30 17 61 0 49z"/>
<path d="M7868 6693 c7 -3 16 -2 19 1 4 3 -2 6 -13 5 -11 0 -14 -3 -6 -6z"/>
<path d="M8500 6516 c7 -7 13 -7 20 0 6 6 3 10 -10 10 -13 0 -16 -4 -10 -10z"/>
<path d="M9036 6404 c-4 -10 -2 -13 6 -8 8 5 9 2 5 -9 -3 -9 -2 -19 3 -22 6
-4 10 5 10 19 0 29 -15 43 -24 20z"/>
<path d="M8990 6382 c0 -4 5 -13 12 -20 9 -9 8 -13 -5 -17 -9 -4 -13 -13 -10
-23 4 -13 2 -12 -11 3 -17 20 -17 20 -11 -5 12 -48 3 -110 -16 -110 -5 0 -9
-4 -9 -9 0 -5 9 -7 20 -4 11 3 20 12 20 19 0 8 4 14 9 14 4 0 6 12 3 26 -3 17
-1 25 5 21 6 -4 8 3 5 18 -2 14 0 25 5 25 8 0 10 32 3 50 -1 3 -2 8 -1 13 0 4
-3 7 -9 7 -5 0 -10 -4 -10 -8z"/>
<path d="M9061 6330 c-12 -36 -24 -40 -15 -5 3 14 3 25 0 25 -3 0 -11 -20 -17
-45 -6 -25 -15 -45 -19 -45 -3 0 -7 -13 -7 -29 0 -26 3 -29 19 -20 10 5 18 21
18 34 0 14 5 25 11 25 7 0 8 -23 5 -66 -3 -47 -1 -64 7 -61 7 2 11 18 11 35
-2 30 19 51 31 32 10 -16 25 -11 18 5 -3 9 2 24 11 34 9 10 13 21 10 24 -4 4
-1 13 5 21 8 10 9 16 1 21 -5 3 -10 -1 -10 -10 0 -9 -5 -13 -10 -10 -6 4 -8
10 -6 14 3 4 -8 7 -24 6 -26 -2 -29 1 -24 22 9 33 -2 28 -15 -7z m49 -30 c10
-6 11 -10 3 -10 -7 0 -13 -6 -13 -14 0 -8 -7 -16 -15 -20 -9 -3 -15 0 -15 10
0 9 5 12 11 8 8 -4 9 0 4 15 -7 23 1 26 25 11z"/>
<path d="M8170 6316 c0 -2 7 -9 15 -16 9 -7 15 -8 15 -2 0 5 -7 12 -15 16 -8
3 -15 4 -15 2z"/>
<path d="M8875 6310 c3 -5 11 -10 16 -10 6 0 7 5 4 10 -3 6 -11 10 -16 10 -6
0 -7 -4 -4 -10z"/>
<path d="M8320 6239 c0 -5 5 -7 10 -4 6 3 10 8 10 11 0 2 -4 4 -10 4 -5 0 -10
-5 -10 -11z"/>
<path d="M9148 6219 c-3 -17 0 -26 9 -26 15 0 15 3 4 32 -7 18 -8 17 -13 -6z"/>
<path d="M9092 6186 c1 -15 6 -26 10 -26 12 0 10 38 -2 45 -6 4 -9 -5 -8 -19z"/>
<path d="M8240 6190 c0 -5 5 -10 11 -10 5 0 7 5 4 10 -3 6 -8 10 -11 10 -2 0
-4 -4 -4 -10z"/>
<path d="M9025 6192 c-12 -8 -13 -62 -2 -79 5 -8 4 -13 -3 -13 -6 0 -8 -5 -5
-10 4 -6 11 -8 16 -5 13 9 11 45 -2 45 -8 0 -8 4 -2 13 5 6 10 22 11 35 1 25
1 25 -13 14z"/>
<path d="M8090 6181 c0 -6 4 -13 10 -16 6 -3 7 1 4 9 -7 18 -14 21 -14 7z"/>
<path d="M8861 6174 c0 -11 3 -14 6 -6 3 7 2 16 -1 19 -3 4 -6 -2 -5 -13z"/>
<path d="M8301 6171 c-7 -5 -9 -11 -5 -14 5 -3 15 1 22 9 14 16 5 18 -17 5z"/>
<path d="M8364 6158 c-4 -6 -3 -8 4 -4 6 3 15 -2 21 -11 12 -20 14 -13 5 11
-7 19 -20 21 -30 4z"/>
<path d="M8974 6159 c-4 -8 -3 -9 4 -5 7 4 12 3 12 -3 0 -5 -5 -11 -12 -13 -8
-3 -9 -6 -1 -11 6 -4 16 -1 22 7 8 10 8 16 -3 25 -11 9 -16 9 -22 0z"/>
<path d="M7935 6130 c-3 -5 -1 -10 4 -10 6 0 11 5 11 10 0 6 -2 10 -4 10 -3 0
-8 -4 -11 -10z"/>
<path d="M8501 6124 c0 -11 3 -14 6 -6 3 7 2 16 -1 19 -3 4 -6 -2 -5 -13z"/>
<path d="M8550 6121 c0 -5 7 -12 16 -15 14 -5 15 -4 4 9 -14 17 -20 19 -20 6z"/>
<path d="M8612 6105 c6 -14 13 -24 14 -22 6 6 -9 47 -17 47 -5 0 -3 -11 3 -25z"/>
<path d="M8912 6123 c-6 -2 -10 -9 -6 -14 8 -14 21 -11 21 6 0 8 -1 15 -1 14
-1 0 -7 -3 -14 -6z"/>
<path d="M7797 6113 c-4 -3 -7 -11 -7 -17 0 -6 5 -5 12 2 6 6 9 14 7 17 -3 3
-9 2 -12 -2z"/>
<path d="M8657 6089 c7 -7 15 -10 18 -7 3 3 -2 9 -12 12 -14 6 -15 5 -6 -5z"/>
<path d="M8230 6080 c0 -5 5 -10 11 -10 5 0 7 5 4 10 -3 6 -8 10 -11 10 -2 0
-4 -4 -4 -10z"/>
<path d="M8470 6081 c0 -18 18 -21 30 -6 10 13 9 15 -9 15 -11 0 -21 -4 -21
-9z"/>
<path d="M8506 6053 c-6 -14 -5 -15 5 -6 7 7 10 15 7 18 -3 3 -9 -2 -12 -12z"/>
<path d="M8570 6060 c0 -5 7 -7 15 -4 8 4 15 8 15 10 0 2 -7 4 -15 4 -8 0 -15
-4 -15 -10z"/>
<path d="M9010 6062 c0 -23 2 -27 13 -24 6 2 5 -4 -3 -12 -10 -13 -10 -16 1
-16 23 0 43 40 28 54 -9 8 -10 8 -5 -1 9 -16 -6 -17 -22 -1 -9 9 -12 9 -12 0z"/>
<path d="M9100 6054 c0 -8 4 -13 9 -9 6 3 9 -4 8 -15 -1 -11 -7 -20 -14 -20
-16 0 -16 -5 -3 -31 6 -10 16 -19 22 -19 6 0 6 6 -3 16 -11 13 -11 15 2 14 30
-5 36 1 31 25 -2 14 -8 25 -13 25 -5 0 -9 7 -9 15 0 8 -7 15 -15 15 -8 0 -15
-7 -15 -16z"/>
<path d="M9067 6045 c-4 -8 -2 -17 2 -20 5 -2 11 4 14 15 6 23 -8 27 -16 5z"/>
<path d="M8911 6041 c-7 -5 -11 -17 -9 -27 4 -17 5 -17 17 4 14 27 12 35 -8
23z"/>
<path d="M8530 6030 c0 -6 7 -10 15 -10 8 0 15 2 15 4 0 2 -7 6 -15 10 -8 3
-15 1 -15 -4z"/>
<path d="M8633 6033 c-15 -5 -17 -23 -4 -23 5 0 11 7 15 15 3 8 4 15 3 14 -1
0 -8 -3 -14 -6z"/>
<path d="M8380 6019 c0 -5 5 -7 10 -4 6 3 10 8 10 11 0 2 -4 4 -10 4 -5 0 -10
-5 -10 -11z"/>
<path d="M8130 6016 c0 -2 7 -9 15 -16 9 -7 15 -8 15 -2 0 5 -7 12 -15 16 -8
3 -15 4 -15 2z"/>
<path d="M8870 6005 c-7 -9 -8 -15 -2 -15 5 0 12 7 16 15 3 8 4 15 2 15 -2 0
-9 -7 -16 -15z"/>
<path d="M8430 5989 c0 -5 5 -7 10 -4 6 3 10 8 10 11 0 2 -4 4 -10 4 -5 0 -10
-5 -10 -11z"/>
<path d="M9005 5989 c-4 -6 -5 -12 -2 -15 2 -3 7 2 10 11 7 17 1 20 -8 4z"/>
<path d="M9048 5993 c6 -2 18 -2 25 0 6 3 1 5 -13 5 -14 0 -19 -2 -12 -5z"/>
<path d="M8905 5970 c3 -5 13 -10 21 -10 8 0 14 -5 14 -11 0 -5 -4 -7 -10 -4
-5 3 -10 1 -10 -4 0 -6 7 -11 15 -11 20 0 19 36 -1 44 -23 9 -36 7 -29 -4z"/>
<path d="M8815 5959 c7 -11 35 -12 35 -1 0 4 -9 8 -20 9 -11 1 -18 -2 -15 -8z"/>
<path d="M8480 5941 c0 -5 5 -13 10 -16 6 -3 10 -2 10 4 0 5 -4 13 -10 16 -5
3 -10 2 -10 -4z"/>
<path d="M9050 5942 c0 -7 -6 -12 -14 -12 -8 0 -17 -4 -20 -9 -3 -5 2 -8 12
-7 18 1 38 24 28 33 -3 4 -6 1 -6 -5z"/>
<path d="M7385 5886 c-18 -19 -37 -31 -41 -27 -4 3 -4 1 0 -6 3 -6 -2 -18 -12
-25 -24 -16 -34 -77 -16 -95 15 -15 28 -17 19 -3 -3 6 3 10 14 10 12 0 21 -4
21 -10 0 -5 4 -10 8 -10 5 0 9 7 9 15 0 8 -4 12 -9 9 -4 -3 -8 0 -8 6 0 6 -8
10 -17 8 -15 -2 -17 3 -15 32 2 19 10 40 18 46 8 6 14 14 14 18 0 4 15 20 32
37 18 16 29 29 25 29 -4 0 -23 -15 -42 -34z"/>
<path d="M8896 5905 c4 -8 12 -15 20 -15 8 0 11 -6 7 -17 -4 -11 -3 -14 5 -9
17 10 15 27 -5 42 -24 18 -34 17 -27 -1z"/>
<path d="M9110 5904 c0 -8 5 -12 10 -9 6 3 10 10 10 16 0 5 -4 9 -10 9 -5 0
-10 -7 -10 -16z"/>
<path d="M8595 5900 c-3 -5 -1 -10 4 -10 6 0 11 5 11 10 0 6 -2 10 -4 10 -3 0
-8 -4 -11 -10z"/>
<path d="M9066 5883 c-6 -14 -5 -15 5 -6 7 7 10 15 7 18 -3 3 -9 -2 -12 -12z"/>
<path d="M8981 5867 c-13 -21 -12 -21 5 -5 10 10 16 20 13 22 -3 3 -11 -5 -18
-17z"/>
<path d="M7831 5824 c-1 -34 -3 -77 -6 -95 -4 -25 -3 -29 3 -14 15 34 23 121
13 146 -8 19 -10 12 -10 -37z"/>
<path d="M8673 5825 c0 -8 4 -12 9 -9 5 3 6 10 3 15 -9 13 -12 11 -12 -6z"/>
<path d="M8335 5820 c3 -5 11 -10 16 -10 6 0 7 5 4 10 -3 6 -11 10 -16 10 -6
0 -7 -4 -4 -10z"/>
<path d="M8400 5811 c0 -5 5 -13 10 -16 6 -3 10 -2 10 4 0 5 -4 13 -10 16 -5
3 -10 2 -10 -4z"/>
<path d="M8582 5800 c2 -27 14 -40 38 -39 8 0 5 4 -8 10 -13 5 -21 12 -18 17
2 4 1 14 -4 22 -7 11 -9 8 -8 -10z"/>
<path d="M8914 5799 c-3 -5 -2 -9 3 -8 35 6 37 -33 2 -52 -26 -14 -25 -43 1
-36 11 3 18 1 14 -4 -3 -5 -12 -9 -21 -9 -12 0 -13 -3 -4 -14 9 -11 9 -20 2
-34 -8 -16 -6 -23 11 -38 12 -11 18 -13 14 -6 -6 10 -1 11 17 7 16 -4 26 -2
30 7 4 11 -4 14 -29 12 -19 -2 -34 1 -34 6 0 6 6 10 14 10 8 0 17 7 20 16 3 8
2 12 -4 9 -16 -10 -11 21 5 35 13 11 13 15 3 21 -9 6 -8 9 6 9 13 0 16 4 9 13
-11 14 -11 27 0 45 5 6 7 12 5 13 -30 6 -59 6 -64 -2z"/>
<path d="M8791 5784 c0 -11 3 -14 6 -6 3 7 2 16 -1 19 -3 4 -6 -2 -5 -13z"/>
<path d="M7160 5760 c0 -9 14 -14 33 -11 12 2 30 -46 23 -64 -4 -11 -12 -14
-27 -10 -18 6 -20 4 -15 -13 4 -11 2 -23 -4 -27 -5 -3 -10 -18 -10 -32 0 -22
4 -19 36 27 40 58 45 89 21 128 -10 14 -57 16 -57 2z"/>
<path d="M8113 5763 c-16 -3 -23 -11 -23 -26 0 -18 2 -19 10 -7 11 18 22 8 24
-23 0 -14 5 -23 10 -19 5 3 6 -2 3 -12 -7 -19 1 -66 12 -66 3 0 14 14 23 30
11 19 13 29 5 27 -7 -1 -10 5 -8 13 2 8 5 26 7 40 3 24 2 25 -13 5 -13 -16
-15 -17 -10 -2 4 9 1 17 -5 17 -7 0 -6 5 2 15 13 16 9 17 -37 8z"/>
<path d="M8891 5761 c-8 -5 -9 -11 -3 -15 5 -3 12 1 16 9 6 17 6 18 -13 6z"/>
<path d="M8065 5750 c3 -5 8 -10 11 -10 2 0 4 5 4 10 0 6 -5 10 -11 10 -5 0
-7 -4 -4 -10z"/>
<path d="M8445 5740 c3 -5 8 -10 11 -10 2 0 4 5 4 10 0 6 -5 10 -11 10 -5 0
-7 -4 -4 -10z"/>
<path d="M8500 5738 c0 -4 4 -8 9 -8 6 0 12 4 15 8 3 5 -1 9 -9 9 -8 0 -15 -4
-15 -9z"/>
<path d="M8590 5736 c0 -2 7 -7 16 -10 8 -3 12 -2 9 4 -6 10 -25 14 -25 6z"/>
<path d="M8392 5716 c7 -8 15 -12 17 -11 5 6 -10 25 -20 25 -5 0 -4 -6 3 -14z"/>
<path d="M9015 5719 c-4 -6 -5 -12 -2 -15 2 -3 7 2 10 11 7 17 1 20 -8 4z"/>
<path d="M7250 5700 c0 -23 10 -26 28 -8 18 18 15 28 -8 28 -13 0 -20 -7 -20
-20z"/>
<path d="M7405 5700 c3 -5 8 -10 11 -10 2 0 4 5 4 10 0 6 -5 10 -11 10 -5 0
-7 -4 -4 -10z"/>
<path d="M8983 5684 c-7 -7 -13 -21 -13 -31 1 -13 5 -10 16 10 17 32 16 42 -3
21z"/>
<path d="M9030 5690 c0 -5 7 -7 15 -4 8 4 15 8 15 10 0 2 -7 4 -15 4 -8 0 -15
-4 -15 -10z"/>
<path d="M8000 5681 c0 -6 4 -13 10 -16 6 -3 7 1 4 9 -7 18 -14 21 -14 7z"/>
<path d="M8810 5686 c0 -2 8 -10 18 -17 15 -13 16 -12 3 4 -13 16 -21 21 -21
13z"/>
<path d="M7965 5669 c-4 -6 -5 -12 -2 -15 2 -3 7 2 10 11 7 17 1 20 -8 4z"/>
<path d="M8455 5670 c3 -5 11 -10 16 -10 6 0 7 5 4 10 -3 6 -11 10 -16 10 -6
0 -7 -4 -4 -10z"/>
<path d="M9000 5639 c0 -5 5 -7 10 -4 6 3 10 8 10 11 0 2 -4 4 -10 4 -5 0 -10
-5 -10 -11z"/>
<path d="M3506 5614 c-4 -10 -1 -14 6 -12 15 5 23 28 10 28 -5 0 -13 -7 -16
-16z"/>
<path d="M7199 5598 c-22 -32 -22 -33 -1 -14 12 11 22 15 22 11 0 -5 5 -4 12
3 9 9 9 15 1 23 -7 7 -17 1 -34 -23z"/>
<path d="M7821 5610 c0 -8 4 -24 9 -35 l9 -20 0 20 c0 11 -4 27 -9 35 -9 13
-10 13 -9 0z"/>
<path d="M9064 5612 c2 -4 -5 -19 -16 -32 -19 -24 -19 -24 -15 -3 3 15 1 20
-9 16 -8 -3 -14 1 -14 8 0 11 -2 11 -10 -1 -6 -9 -5 -17 3 -22 8 -5 5 -8 -8
-8 -17 0 -17 -2 5 -13 27 -14 70 -2 70 20 0 6 3 18 6 27 3 9 1 16 -6 16 -6 0
-9 -4 -6 -8z"/>
<path d="M7238 5576 c-10 -7 -15 -16 -11 -19 11 -12 21 -7 26 13 3 11 4 20 4
20 -1 0 -10 -7 -19 -14z"/>
<path d="M7346 5582 c-3 -4 4 -9 15 -9 23 -2 25 3 4 10 -8 4 -16 3 -19 -1z"/>
<path d="M8946 5581 c-4 -5 -2 -12 3 -15 5 -4 12 -2 15 3 4 5 2 12 -3 15 -5 4
-12 2 -15 -3z"/>
<path d="M8430 5549 c0 -5 5 -7 10 -4 6 3 10 8 10 11 0 2 -4 4 -10 4 -5 0 -10
-5 -10 -11z"/>
<path d="M7307 5544 c-4 -4 -19 -8 -34 -9 -55 -4 -54 -4 -43 -25 6 -11 8 -26
4 -32 -5 -8 2 -9 25 -5 23 5 33 3 37 -8 4 -8 11 -15 17 -15 5 0 3 8 -6 18 -10
10 -17 25 -17 32 0 7 7 22 17 32 15 16 15 27 0 12z m-50 -56 c-3 -7 -5 -2 -5
12 0 14 2 19 5 13 2 -7 2 -19 0 -25z"/>
<path d="M8395 5515 c-26 -28 -55 -82 -55 -103 0 -9 12 6 26 33 15 28 33 58
42 68 22 25 10 28 -13 2z"/>
<path d="M8767 5515 c-4 -8 -2 -17 3 -20 6 -4 10 3 10 14 0 25 -6 27 -13 6z"/>
<path d="M9040 5300 c0 -5 5 -10 11 -10 5 0 7 5 4 10 -3 6 -8 10 -11 10 -2 0
-4 -4 -4 -10z"/>
<path d="M9000 5280 c0 -20 69 -192 73 -180 13 40 14 61 2 68 -6 4 -26 32 -43
62 -18 30 -32 53 -32 50z"/>
<path d="M9094 5225 c3 -9 6 -19 6 -21 0 -2 6 -4 14 -4 21 0 12 34 -9 39 -13
2 -16 -1 -11 -14z"/>
<path d="M9120 5175 c0 -20 24 -85 31 -85 15 0 22 50 11 73 -6 12 -11 16 -11
8 -1 -11 -4 -11 -16 -1 -8 7 -15 9 -15 5z"/>
<path d="M6842 5159 c2 -6 8 -10 13 -10 5 0 11 4 13 10 2 6 -4 11 -13 11 -9 0
-15 -5 -13 -11z"/>
<path d="M4386 4891 c-11 -13 -14 -21 -7 -26 6 -3 9 -18 6 -33 -5 -26 -5 -26
6 -4 7 12 20 22 30 22 12 0 16 6 12 20 -9 34 -28 42 -47 21z"/>
<path d="M8866 4854 c-3 -8 -11 -12 -17 -8 -8 4 -9 3 -5 -5 4 -6 25 -20 47
-31 42 -22 92 -82 116 -142 17 -42 21 -44 45 -25 23 17 26 71 6 94 -8 10 -19
32 -22 50 -8 35 -25 46 -47 31 -11 -8 -10 -9 3 -4 18 5 20 2 32 -71 7 -41 -8
-43 -24 -3 -16 38 -97 113 -112 104 -6 -4 -8 -3 -4 4 3 6 2 13 -3 16 -5 3 -12
-1 -15 -10z"/>
<path d="M3902 4817 l-32 -24 77 -67 c94 -81 226 -172 311 -215 34 -17 62 -35
62 -40 0 -4 -19 -16 -42 -25 -55 -20 -198 -104 -198 -115 0 -18 153 -62 238
-69 47 -3 52 -2 52 16 0 12 -5 24 -10 27 -6 4 -3 17 10 35 11 15 17 35 14 44
-3 9 -1 16 5 16 6 0 11 -6 11 -14 0 -8 15 -20 34 -26 19 -6 45 -22 58 -35 33
-33 71 -40 134 -25 40 10 63 10 88 3 19 -6 40 -7 47 -2 15 9 16 9 -73 33 -55
16 -58 18 -68 59 -38 145 -74 232 -92 220 -6 -3 -8 -1 -5 4 6 9 -45 147 -58
162 -2 1 -3 -15 -2 -38 1 -28 7 -41 16 -41 8 0 12 -3 8 -6 -3 -4 0 -23 9 -42
8 -20 11 -38 6 -41 -17 -12 -21 -39 -6 -45 8 -3 14 0 14 6 0 6 3 8 6 5 4 -4 2
-13 -4 -20 -7 -8 -13 -30 -14 -49 -2 -20 -6 -34 -10 -32 -4 2 -9 0 -13 -6 -3
-5 -1 -10 6 -10 9 0 10 -3 2 -11 -8 -8 -20 -6 -44 7 -93 48 -121 85 -128 173
l-6 65 -126 50 c-69 28 -138 59 -153 69 -46 31 -86 32 -124 4z m613 -387 c3
-6 -1 -7 -9 -4 -18 7 -21 14 -7 14 6 0 13 -4 16 -10z m-145 -55 c0 -8 -4 -15
-10 -15 -5 0 -10 7 -10 15 0 8 5 15 10 15 6 0 10 -7 10 -15z m-40 -51 c0 -17
-22 -14 -28 4 -2 7 3 12 12 12 9 0 16 -7 16 -16z"/>
<path d="M8683 4823 c-3 -10 -8 -21 -10 -25 -2 -5 6 -8 18 -8 17 0 20 3 12 11
-6 6 -9 18 -6 25 3 8 2 14 -1 14 -4 0 -9 -8 -13 -17z"/>
<path d="M8554 4758 l-19 -23 23 19 c12 11 22 21 22 23 0 8 -8 2 -26 -19z"/>
<path d="M8965 4620 c3 -5 11 -10 16 -10 6 0 7 5 4 10 -3 6 -11 10 -16 10 -6
0 -7 -4 -4 -10z"/>
<path d="M7157 4493 c-13 -13 -7 -43 9 -43 24 0 54 19 54 35 0 15 -50 22 -63
8z"/>
<path d="M7304 4356 c-9 -23 0 -51 16 -51 10 0 15 10 15 29 0 32 -21 47 -31
22z"/>
<path d="M3916 4198 c-129 -130 -219 -280 -273 -455 -25 -82 -27 -101 -27
-273 0 -174 1 -190 27 -275 59 -192 145 -332 288 -470 105 -101 92 -104 164
40 45 90 65 126 76 135 3 3 13 19 22 35 22 43 73 95 92 95 10 0 13 4 8 13 -4
6 -9 23 -11 36 -2 14 -9 35 -16 48 l-12 25 -27 -41 c-15 -22 -35 -44 -45 -50
-16 -8 -18 -4 -17 45 0 30 3 54 8 54 4 0 7 7 7 14 0 19 45 68 53 59 4 -3 7 0
7 8 0 11 2 11 10 -1 8 -12 10 -11 10 7 0 41 13 53 106 99 52 25 92 50 88 55
-3 5 0 9 5 9 6 0 11 4 11 10 0 5 -7 7 -14 4 -18 -7 -13 33 9 77 8 15 15 35 15
44 0 8 4 15 9 15 5 0 14 13 19 29 11 31 137 205 172 236 27 24 50 78 50 116 0
36 -7 36 -79 -1 -38 -19 -93 -35 -157 -45 -54 -9 -103 -20 -109 -25 -14 -12
-48 -6 -53 8 -6 20 -22 13 -22 -10 0 -12 -10 -43 -22 -70 -21 -48 -22 -48 -69
-48 -26 0 -51 5 -54 10 -10 16 -34 12 -51 -9 -15 -16 -21 -17 -67 -7 -58 13
-67 28 -47 77 11 25 18 29 54 29 22 0 53 6 68 14 22 12 112 25 208 30 19 1 28
9 37 36 17 51 16 67 -13 116 -19 32 -25 53 -21 73 7 33 -8 40 -83 41 -49 0
-117 27 -140 55 -18 21 -85 65 -101 65 -6 0 -47 -37 -93 -82z m53 -1372 c10
-12 8 -13 -8 -9 -12 3 -21 9 -21 14 0 14 16 11 29 -5z"/>
<path d="M5766 4091 c-4 -7 -5 -15 -2 -18 9 -9 19 4 14 18 -4 11 -6 11 -12 0z"/>
<path d="M9441 3846 c-14 -16 -4 -26 26 -26 28 0 30 15 4 29 -14 8 -22 7 -30
-3z"/>
<path d="M4715 3604 c-14 -31 -25 -59 -25 -63 0 -3 -12 -17 -25 -30 -14 -13
-24 -25 -22 -27 2 -2 19 -1 40 3 34 5 36 8 43 52 3 25 10 63 14 84 4 20 6 37
4 37 -2 0 -15 -25 -29 -56z"/>
<path d="M4616 3473 c-6 -14 -5 -15 5 -6 7 7 10 15 7 18 -3 3 -9 -2 -12 -12z"/>
<path d="M5558 3373 c7 -3 16 -2 19 1 4 3 -2 6 -13 5 -11 0 -14 -3 -6 -6z"/>
<path d="M5326 3125 c-11 -8 -15 -15 -9 -15 7 0 14 4 17 8 2 4 22 9 42 10 51
4 57 12 8 12 -21 0 -48 -7 -58 -15z"/>
<path d="M5260 3044 c0 -8 5 -24 10 -35 10 -17 8 -18 -15 -9 -34 13 -45 13
-45 -1 0 -5 5 -7 10 -4 6 3 10 2 10 -4 0 -6 6 -8 14 -5 9 3 17 -3 21 -17 5
-14 10 -18 15 -10 4 8 11 2 20 -18 7 -17 33 -47 59 -68 25 -20 73 -64 105 -98
58 -59 59 -60 32 -63 -26 -3 -27 -4 -9 -17 16 -13 13 -14 -34 -15 -29 0 -76
-5 -105 -11 l-53 -12 40 -11 c41 -12 116 -13 151 -2 22 6 36 -1 51 -28 10 -18
11 -18 30 1 10 10 35 29 56 42 43 26 47 35 12 29 -17 -4 -25 -1 -25 8 0 10 9
12 31 7 24 -5 36 0 60 23 17 16 40 42 51 58 17 23 18 30 7 37 -8 5 -17 3 -21
-4 -5 -8 -11 -8 -15 -2 -5 6 -19 10 -33 10 -20 -1 -24 -5 -22 -24 3 -21 1 -23
-20 -16 -12 4 -32 8 -44 9 -11 1 -24 5 -30 8 -5 3 -31 9 -57 13 -26 4 -63 18
-82 30 -18 13 -35 21 -38 19 -15 -16 -117 142 -117 181 0 8 -4 15 -10 15 -5 0
-10 -7 -10 -16z m285 -294 c19 -8 19 -9 -2 -9 -12 -1 -25 4 -28 9 -7 12 2 12
30 0z m55 -44 c0 -16 -14 -36 -26 -36 -8 0 -14 2 -14 4 0 2 -3 11 -6 20 -5 12
0 16 20 16 14 0 26 -2 26 -4z"/>
<path d="M5388 2983 c7 -3 16 -2 19 1 4 3 -2 6 -13 5 -11 0 -14 -3 -6 -6z"/>
<path d="M4320 2961 c0 -6 4 -13 10 -16 6 -3 7 1 4 9 -7 18 -14 21 -14 7z"/>
<path d="M4688 2963 c7 -3 16 -2 19 1 4 3 -2 6 -13 5 -11 0 -14 -3 -6 -6z"/>
<path d="M5540 2910 c0 -5 5 -10 10 -10 6 0 10 5 10 10 0 6 -4 10 -10 10 -5 0
-10 -4 -10 -10z"/>
<path d="M5596 2891 c-3 -5 1 -11 9 -14 9 -4 12 -1 8 9 -6 16 -10 17 -17 5z"/>
<path d="M4350 2878 c-1 -7 -36 -85 -80 -173 -44 -87 -78 -161 -76 -162 5 -6
176 75 176 82 0 4 -13 26 -30 50 -16 24 -30 50 -30 57 0 8 20 29 45 48 25 19
45 35 45 36 0 6 -42 74 -46 74 -2 0 -4 -6 -4 -12z"/>
<path d="M5135 2800 c-16 -7 -17 -9 -3 -9 9 -1 20 4 23 9 7 11 7 11 -20 0z"/>
<path d="M5408 2793 c7 -3 16 -2 19 1 4 3 -2 6 -13 5 -11 0 -14 -3 -6 -6z"/>
<path d="M4712 2639 c-127 -21 -247 -107 -305 -216 -59 -114 -68 -240 -23
-348 16 -38 16 -39 -14 -70 -17 -18 -30 -42 -30 -56 0 -27 -25 -112 -41 -143
-6 -11 -8 -39 -3 -70 l7 -51 13 35 c7 19 13 50 13 68 1 33 35 96 65 121 9 7
25 11 37 8 12 -3 36 3 56 14 20 11 40 16 44 12 16 -16 -9 -71 -49 -107 -22
-20 -43 -47 -46 -61 -3 -13 -18 -36 -32 -50 -22 -23 -24 -27 -10 -40 12 -13
13 -21 4 -40 -6 -14 -17 -25 -24 -25 -23 0 -27 -21 -5 -27 18 -5 19 -7 7 -17
-18 -14 -21 -33 -12 -68 6 -21 2 -39 -20 -75 -15 -27 -36 -54 -47 -62 -17 -12
-19 -23 -15 -90 5 -87 32 -156 98 -249 39 -57 40 -59 39 -142 0 -47 -6 -101
-12 -120 -11 -29 -17 -35 -39 -32 -16 1 -63 -16 -118 -44 -71 -35 -94 -43
-101 -33 -10 16 -59 -4 -59 -24 0 -22 35 -118 63 -172 53 -104 179 -196 320
-236 110 -31 320 -34 412 -5 137 43 196 84 302 212 43 53 167 294 156 304 -4
4 -51 20 -103 34 -125 35 -144 43 -172 73 -21 23 -23 33 -22 124 1 85 4 104
22 128 12 16 24 41 28 55 7 30 29 50 44 41 6 -4 10 6 10 24 0 17 3 30 8 30 29
-5 37 8 66 108 13 47 13 59 0 110 -17 65 -12 107 18 166 17 35 18 45 8 88 -7
28 -10 62 -7 76 3 15 -2 45 -10 67 -17 51 -11 79 22 94 27 13 30 29 15 81 -8
29 -7 36 9 48 19 13 24 41 22 143 -2 114 -3 117 -63 179 -33 33 -58 68 -58 80
0 24 -37 61 -62 61 -9 0 -34 14 -53 32 -32 28 -46 32 -118 39 -45 4 -98 12
-117 18 -39 12 -43 12 -118 0z m199 -731 c9 -16 8 -22 -2 -29 -8 -5 -18 -7
-24 -4 -5 3 -18 8 -27 11 -30 11 -22 39 12 41 21 2 33 -4 41 -19z m239 -290
c0 -24 -5 -50 -10 -58 -8 -12 -10 -9 -10 11 0 15 -3 41 -6 58 -5 24 -3 31 10
31 12 0 16 -10 16 -42z m-38 -50 c-9 -9 -12 -7 -12 12 0 19 3 21 12 12 9 -9 9
-15 0 -24z m48 -48 c0 -11 -2 -20 -4 -20 -2 0 -6 9 -9 20 -3 11 -1 20 4 20 5
0 9 -9 9 -20z m-140 -100 c0 -5 -9 -10 -21 -10 -11 0 -17 5 -14 10 3 6 13 10
21 10 8 0 14 -4 14 -10z m-350 -241 c0 -8 4 -8 13 -2 6 6 27 10 45 10 23 0 32
-5 32 -18 0 -33 -112 -30 -118 4 -2 10 3 17 12 17 9 0 16 -5 16 -11z m124 -14
c-6 -16 -24 -21 -24 -7 0 11 11 22 21 22 5 0 6 -7 3 -15z m-21 -52 c-7 -2 -19
-2 -25 0 -7 3 -2 5 12 5 14 0 19 -2 13 -5z"/>
<path d="M9743 2354 c-4 -10 39 -82 122 -205 104 -154 133 -189 149 -187 12 2
22 11 24 20 2 10 -52 99 -124 203 -126 183 -154 211 -171 169z"/>
<path d="M9647 2288 c-9 -5 -17 -14 -17 -19 0 -6 37 -64 82 -130 65 -94 86
-119 102 -117 12 2 22 11 24 20 3 18 -144 243 -164 252 -5 2 -18 0 -27 -6z"/>
<path d="M8551 2264 c0 -11 3 -14 6 -6 3 7 2 16 -1 19 -3 4 -6 -2 -5 -13z"/>
<path d="M8930 1882 c-133 -94 -133 -94 -37 -235 l77 -113 -20 -69 c-30 -105
-34 -99 81 -110 l67 -6 72 -105 c76 -111 105 -139 136 -128 10 4 103 65 206
136 138 95 190 136 194 154 5 20 -17 60 -126 222 -73 108 -135 199 -136 201
-2 2 -26 -11 -54 -29 l-51 -33 23 -15 c49 -34 88 -105 88 -162 0 -118 -94
-206 -211 -198 -78 6 -133 42 -165 111 -40 87 -27 157 43 226 24 25 42 49 39
55 -13 27 -112 160 -121 163 -5 1 -53 -28 -105 -65z"/>
<path d="M6952 1839 c-194 -34 -386 -147 -493 -289 -44 -58 -105 -177 -96
-187 10 -9 126 81 122 95 -3 8 20 24 61 42 37 17 63 34 59 40 -3 6 2 13 12 17
10 3 34 13 53 21 19 8 41 14 49 13 10 -2 12 6 9 28 -5 33 -3 34 67 46 60 9 75
15 75 29 0 16 56 23 261 32 138 6 147 6 152 -12 3 -10 9 -98 12 -194 4 -96 8
-204 10 -240 3 -36 8 -136 11 -222 l7 -158 -31 0 c-37 0 -42 8 -48 63 -3 23
-12 70 -20 105 -16 73 -18 132 -4 132 6 0 10 -2 10 -4 0 -15 52 -252 57 -256
3 -3 3 52 0 121 -4 88 -2 130 6 138 9 9 9 16 0 29 -6 10 -14 76 -17 148 -4 71
-9 173 -12 227 l-6 97 -40 0 -40 0 6 -77 c3 -43 6 -105 6 -138 1 -33 6 -87 11
-120 18 -114 19 -116 40 -110 10 4 19 2 19 -3 0 -5 -6 -9 -12 -10 -7 0 -22 -2
-32 -4 -18 -3 -22 10 -43 117 -48 246 -65 330 -68 334 -2 2 -21 0 -41 -3 l-37
-7 5 -64 c3 -34 9 -69 14 -76 5 -8 10 -23 11 -34 3 -17 52 -182 83 -277 6 -21
5 -28 -5 -28 -8 0 -32 61 -65 163 -70 217 -91 277 -100 277 -4 0 -21 -5 -39
-11 -24 -9 -30 -16 -26 -30 3 -10 8 -29 11 -41 9 -35 63 -151 122 -266 29 -57
51 -106 48 -110 -3 -3 -6 0 -6 6 0 7 -7 12 -15 12 -12 0 -56 81 -209 387 -13
27 -36 29 -65 5 -21 -16 -21 -19 -6 -57 l15 -40 -31 35 c-33 36 -30 26 4 -22
11 -15 25 -24 30 -21 6 4 7 1 3 -6 -10 -15 23 -53 37 -44 6 3 7 1 3 -5 -4 -6
19 -48 51 -92 84 -118 129 -187 111 -173 -8 7 -17 10 -21 7 -3 -3 -13 7 -23
23 -17 27 -46 66 -199 270 l-68 91 -34 -21 c-18 -12 -33 -26 -33 -30 0 -17 75
-117 93 -123 9 -3 17 -9 17 -12 0 -7 50 -76 105 -146 65 -81 57 -75 82 -59 14
9 23 11 23 5 0 -14 -43 -55 -98 -93 -26 -19 -40 -35 -35 -42 4 -7 -1 -5 -11 3
-16 12 -19 12 -27 -3 -5 -9 -16 -14 -24 -10 -11 4 -13 1 -8 -13 5 -13 3 -16
-10 -11 -9 3 -17 2 -17 -4 0 -6 -16 10 -35 35 -41 54 -41 56 -15 56 11 0 20
-4 20 -10 0 -11 49 -45 55 -38 3 3 -4 17 -16 31 l-20 27 27 10 c15 6 27 9 28
8 9 -24 25 -42 39 -44 15 -2 15 1 1 34 -9 21 -18 43 -21 50 -8 18 -19 15 -40
-11 -10 -12 -30 -28 -45 -34 -27 -12 -29 -10 -68 40 -86 113 -81 108 -96 96
-8 -6 -27 -9 -43 -7 l-30 4 22 -30 c11 -17 48 -66 80 -109 51 -66 62 -75 76
-65 13 10 14 10 4 -2 -10 -11 -8 -20 8 -47 12 -19 18 -37 15 -41 -4 -3 -10 -2
-14 4 -4 6 -72 97 -152 203 l-145 192 -13 -43 c-20 -65 -19 -250 2 -323 32
-109 94 -214 176 -296 90 -90 181 -146 310 -191 91 -31 101 -33 245 -32 175 0
232 12 370 79 93 45 206 130 245 184 l22 31 -42 97 c-71 165 -85 240 -84 448
0 152 4 192 22 259 l22 78 -23 19 c-85 72 -216 140 -320 164 -79 19 -266 27
-335 14z m275 -175 c-3 -3 -12 -4 -19 -1 -8 3 -5 6 6 6 11 1 17 -2 13 -5z
m-147 -12 c0 -5 -7 -9 -15 -9 -8 0 -12 4 -9 9 3 4 9 8 15 8 5 0 9 -4 9 -8z
m141 -45 c-10 -9 -11 -8 -5 6 3 10 9 15 12 12 3 -3 0 -11 -7 -18z m-138 -12
c-7 -21 -12 -19 -10 4 0 11 5 18 9 15 4 -3 5 -11 1 -19z m-128 5 c3 -5 -1 -10
-10 -10 -9 0 -13 5 -10 10 3 6 8 10 10 10 2 0 7 -4 10 -10z m-130 -30 c3 -5 1
-10 -4 -10 -6 0 -11 5 -11 10 0 6 2 10 4 10 3 0 8 -4 11 -10z m142 -32 c-3 -8
-6 -5 -6 6 -1 11 2 17 5 13 3 -3 4 -12 1 -19z m-117 -26 c0 -15 -2 -15 -10 -2
-13 20 -13 33 0 25 6 -3 10 -14 10 -23z m-135 -53 c11 -16 1 -19 -13 -3 -7 8
-8 14 -3 14 5 0 13 -5 16 -11z m419 -356 c21 -38 34 -59 31 -48 -27 77 -30
124 -6 99 9 -9 71 -196 71 -214 0 -6 -10 -4 -23 5 -27 18 -127 180 -127 207 0
34 17 18 54 -49z m-92 30 c9 -10 21 -29 28 -42 10 -19 10 -22 -2 -16 -26 16
-58 49 -58 62 0 18 14 16 32 -4z m-87 -60 c4 -10 8 -35 10 -56 4 -49 48 -123
85 -142 44 -23 44 -32 3 -55 -21 -11 -71 -45 -112 -75 -41 -30 -79 -55 -85
-54 -15 0 -168 208 -163 222 2 6 38 -34 81 -89 43 -54 84 -100 91 -102 14 -3
30 15 38 43 9 28 -23 67 -57 68 -21 2 -24 4 -13 11 12 8 9 19 -20 64 -19 29
-32 56 -30 59 3 3 12 -4 19 -16 15 -25 22 -26 42 -5 19 19 21 35 3 28 -8 -3
-13 5 -15 21 -2 29 5 32 25 8 13 -16 13 -16 4 4 -10 19 -6 25 31 52 49 36 53
37 63 14z m435 -153 c-8 -5 -11 -10 -5 -10 18 0 -10 -17 -40 -24 l-30 -7 34
25 c19 14 40 26 45 26 6 0 4 -5 -4 -10z m-526 -112 c-3 -4 2 -8 10 -8 9 0 16
-7 16 -15 0 -17 -35 -21 -45 -5 -3 6 -1 10 6 10 8 0 9 4 0 13 -8 10 -7 14 4
14 8 0 12 -4 9 -9z"/>
<path d="M6936 805 c4 -8 11 -15 16 -15 6 0 5 6 -2 15 -7 8 -14 15 -16 15 -2
0 -1 -7 2 -15z"/>
<path d="M8494 1695 c-5 -3 -66 -9 -135 -13 -115 -6 -124 -8 -124 -27 0 -14
11 -24 40 -34 34 -11 61 -11 175 0 74 8 179 14 233 14 105 -1 121 9 70 42 -21
14 -51 18 -138 20 -60 1 -115 0 -121 -2z"/>
<path d="M9160 1628 c-25 -40 -20 -83 15 -118 31 -31 100 -35 120 -6 22 30 8
47 -37 44 -51 -4 -72 20 -44 51 23 25 17 55 -11 59 -16 2 -28 -6 -43 -30z"/>
<path d="M8132 1586 c-46 -33 -53 -43 -14 -20 19 10 38 25 44 32 15 17 8 14
-30 -12z"/>
<path d="M4266 1523 c-8 -36 -5 -113 5 -119 4 -2 7 20 7 49 0 29 3 63 6 75 4
13 3 22 -3 22 -5 0 -12 -12 -15 -27z"/>
<path d="M8005 1500 c-3 -5 -2 -10 4 -10 5 0 13 5 16 10 3 6 2 10 -4 10 -5 0
-13 -4 -16 -10z"/>
<path d="M7909 1433 c-1 -4 -1 -12 0 -16 1 -5 -3 -6 -8 -2 -14 8 -92 -45 -84
-58 3 -6 1 -7 -6 -3 -6 4 -25 -2 -42 -14 -27 -20 -28 -23 -13 -34 15 -12 15
-13 1 -19 -9 -3 -20 0 -24 8 -7 12 -17 8 -55 -18 -52 -35 -55 -47 -16 -61 20
-7 32 -4 57 13 17 12 31 29 31 37 0 8 7 14 15 14 23 0 210 133 194 138 -8 3
-22 9 -31 14 -10 5 -19 5 -19 1z m-169 -171 c0 -14 -68 -47 -77 -38 -11 10 34
46 58 46 10 0 19 -4 19 -8z"/>
<path d="M7960 1383 c-8 -2 -22 -7 -30 -9 -13 -5 -13 -6 0 -14 25 -16 59 -11
70 10 9 17 8 20 -7 19 -10 0 -25 -3 -33 -6z"/>
<path d="M6432 1368 c-7 -7 -12 -24 -12 -38 0 -22 7 -29 39 -40 22 -7 46 -10
54 -7 8 3 20 0 26 -6 19 -19 13 35 -9 71 -22 36 -23 37 -50 20 -17 -10 -22
-10 -28 -1 -6 10 -11 10 -20 1z"/>
<path d="M7927 1303 c-20 -14 -35 -28 -33 -30 4 -4 86 46 86 53 0 9 -17 1 -53
-23z"/>
<path d="M6616 1305 c4 -8 8 -15 10 -15 2 0 4 7 4 15 0 8 -4 15 -10 15 -5 0
-7 -7 -4 -15z"/>
<path d="M6676 1286 c3 -9 11 -16 16 -16 13 0 5 23 -10 28 -7 2 -10 -2 -6 -12z"/>
<path d="M6648 1265 c5 -11 20 -29 33 -40 22 -20 22 -20 11 0 -5 11 -20 29
-33 40 -22 20 -22 20 -11 0z"/>
<path d="M7865 1260 c-3 -5 -1 -10 4 -10 6 0 11 5 11 10 0 6 -2 10 -4 10 -3 0
-8 -4 -11 -10z"/>
<path d="M6711 1183 c7 -12 15 -20 18 -17 3 2 -3 12 -13 22 -17 16 -18 16 -5
-5z"/>
<path d="M9127 1136 c-59 -41 -73 -55 -29 -30 33 19 91 63 82 63 -3 0 -27 -15
-53 -33z"/>
<path d="M6691 1043 c7 -12 15 -20 18 -17 3 2 -3 12 -13 22 -17 16 -18 16 -5
-5z"/>
<path d="M9000 1050 c-9 -6 -10 -10 -3 -10 6 0 15 5 18 10 8 12 4 12 -15 0z"/>
<path d="M9436 1048 c-9 -5 -14 -13 -11 -18 3 -5 -22 -27 -55 -50 -75 -51 -90
-57 -90 -36 0 21 -76 70 -134 86 -43 12 -86 3 -86 -19 0 -4 53 -30 118 -58
l117 -50 97 66 c54 36 98 69 98 72 0 12 -37 17 -54 7z"/>
<path d="M8790 907 c-58 -40 -122 -84 -144 -99 l-38 -26 31 -16 c29 -16 32
-15 66 6 37 24 42 37 24 55 -6 6 -8 16 -5 22 10 15 36 2 29 -15 -3 -8 -2 -14
2 -14 15 0 203 135 197 142 -4 4 -18 9 -32 12 -20 4 -48 -10 -130 -67z m-72
-96 c18 -11 -45 -52 -66 -43 -12 4 -9 11 14 29 32 26 34 26 52 14z"/>
<path d="M8952 930 c-59 -14 -58 -27 1 -34 54 -7 177 -58 177 -73 -1 -4 -35
-31 -76 -59 -42 -29 -72 -54 -67 -57 13 -8 226 135 216 144 -12 11 -195 89
-207 88 -6 -1 -26 -5 -44 -9z"/>
<path d="M8880 819 c0 -5 5 -7 10 -4 6 3 10 8 10 11 0 2 -4 4 -10 4 -5 0 -10
-5 -10 -11z"/>
<path d="M8850 799 c0 -5 5 -7 10 -4 6 3 10 8 10 11 0 2 -4 4 -10 4 -5 0 -10
-5 -10 -11z"/>
<path d="M8815 780 c-3 -5 -2 -10 4 -10 5 0 13 5 16 10 3 6 2 10 -4 10 -5 0
-13 -4 -16 -10z"/>
</g>
</svg>
